/* XPM */
static char *result[] = {
/* columns rows colors chars-per-pixel */
"80 80 89 1 ",
"  c #14272C",
". c #162B2F",
"X c #172F31",
"o c #183032",
"O c #172E31",
"+ c #162A2F",
"@ c #13232B",
"# c #122029",
"$ c #162C30",
"% c #14252B",
"& c #122028",
"* c #111F27",
"= c #13242A",
"- c #13242B",
"; c #122129",
": c #122128",
"> c #13232A",
", c #14242B",
"< c #101D27",
"1 c #101C26",
"2 c #111F28",
"3 c #152A2F",
"4 c #182F32",
"5 c #183132",
"6 c #162C2F",
"7 c #14262B",
"8 c #111E27",
"9 c #122229",
"0 c #182F31",
"q c #14262C",
"w c #112029",
"e c #12212A",
"r c #12222A",
"t c #101E27",
"y c #15292E",
"u c #172D30",
"i c #172C30",
"p c #15292D",
"a c #132229",
"s c #13222A",
"d c #112028",
"f c #15282E",
"g c #172D31",
"h c #15272D",
"j c #13252B",
"k c #14272D",
"l c #15282D",
"z c #182E31",
"x c #112129",
"c c #162A2E",
"v c #16292E",
"b c #172C2F",
"n c #152A2E",
"m c #14252C",
"M c #162D30",
"N c #111E28",
"B c #121F28",
"V c #15272C",
"C c #162B2E",
"Z c #14282D",
"A c #172B2F",
"S c #111D27",
"D c #12232A",
"F c #183031",
"G c #172E30",
"H c #101D26",
"J c #172F32",
"K c #111D26",
"L c #14262D",
"P c #162B30",
"I c #132129",
"U c #15262C",
"Y c #121E27",
"T c #13262C",
"R c #13252C",
"E c #183033",
"W c #132329",
"Q c #172D2F",
"! c #111F29",
"~ c #101C27",
"^ c #101B26",
"/ c #13242C",
"( c #15282C",
") c #0F1B25",
"_ c #152B2F",
"` c #101B25",
"' c #101C25",
"] c #193133",
"[ c white",
/* pixels */
" .XoO+@#@+oo$%&*=-;&:>,--;<112-345X.%&,.4467:89-&2;>,>>;811*-.4o0.qwe+4o6q;*9qrt",
"7yuXXiq;-+4Opa2;  sdds>>>;t<8#-fgoouh;%.0uy>2djk;2&9>>s;8<8d>yu00ul;r+zOy=d;%f>*",
"% yuool>-yuy=*&%6+-;x>==>:8d9=-qcgoo.9j+iv-22-3.>&:>==>;8ds>j vi40.rr+bnjx2-ciqd",
"v %yg4l>>qks2&m.4$ j 6$.y-&-p6+lqvg4.9-ll-dd-+OM%= .i.yj&>n$.hqluO.r;l >w#-cOOk9",
"ucqqy$k9;9rNB%.0oucn$ooul>#q6o0. qliy9s->#d-nOoOyp64ogy-&jMo0cVqlCc9d=922-cOoO3k",
"XOb->Z%;22B8>A0XOuuOXXul;S8@vOo0.%;V #BB2w@.XXOugOX0uv>88>+O40AVDjh;8&**>yO0Ougg",
"oou=d;&2;>>&=uFGll.0ouke81H2-+Oo6-8:;*;->r-$oXnk$0Jil>*HH2-yOouV&2;82-a#-+oX+q+O",
"GOu=8KS&qlk9=uGc>>fggpr82&&#rL.u.-SH8dq+l--.X.-9vuuls8*&&d9q.0uV2182-nqs-c0.j#ku",
"k3$=8S;qP$l9=6p>2;lchI2:qyyylmqlnjS1dq6ul--..%d&y.lr2d%yyyyqUcCV2Kdj+uh>-l.,B2 u",
";- 9*;qP4Ol;;q>812=,sY;q6Ozihr;rjr8&%.X0y-eTj218%q>d;%.zO$l>;=%=2#%.O4l9r--21t>Z",
"82d8& $4oul&8;2SH8&BB&q6Xo0c-282#2*%.XozprN#d<1<d22;q60oOn-d*B&&&%6Oo4l;2d&8HS2;",
";2H1;vzozv-**D>>>9d2;%+XoO+kj->>s&dZOozc-&2s->>s2N;q.0oz+k-=@-s;;kOoX.-22;->>>d8",
"kD8<;.zOc%#d>lccfj;;j.OJO3k lcclm;dyOzc%;&>h+cyq;em.0oO.k lvcfm>rlXX.R;dDqccyq;<",
"My@2r+6y-#d-yOoz+j;>l04gykqnu4z.q;df$+-B&>lgoO.h%k.zoOCkqyO4z.qD9hucjw#>lu4z. ;<",
".cq;;kq>#;j+Oo0.m#8;qbiy>-yu40.U;82ql@#&-yOo4$ >jl.ibn%-ygo4$q;2&%p=&&-yu406 981",
"V %&&>;2B-nOoX.7&112>qq>8>.40.q;H18>>B&=yuo4$ ;2>mVhq-;sPo4ih;<189>2N>pG40bq;S11",
";;&88BB#>Z6uu.j2HHt2#;#BSryuPLsB8SSBBB@Z.uu$k&SSB#;;;dN;cOul>#NtSN#drh.ugPh#HH8*",
"qm-&2>mqqqqqqj;<18r%qqmsNd=mqqqq-#8a%qLkqqqmrt18a,mqm>&B-qqqqq-r2;mqqkqqqms81S;,",
"OOP@ryGO3-&N2;#BSB-cgOgv>282slMO.-dkuO+-;22;;d82mcuOg.-BN2rh$O.q9quz.R;NB#;2NN-f",
"Eou->nXoOy-B;hyL;*#q.4oO3jds Moo$jwlOoO+j;;qylW*#m.4oOc%&sl$Xouh>h0oz.-#I%yh>8dr",
"4gvr; $oouh;>bX$q;29 6XoXl97.4oOyD2m64oOl-@.4Gl98#q$4oOy9%i4oOv%;%$4ozhs@v0ul92t",
"ils2*9huoul;>Q0O6h9d;q6Xoy>q64zc>2S#q$4zf--ioX$l;8#q6443rRuoOy-&8&%P4Xl>-co4upD2",
"ms2;>-qlbbl;;ZM44ilDw;q.Xy>h.if=*11H#q6up@;L$Xoul>#;j+u+rmMuyDwd;:;q.Ol9;m64oulj",
"288%ycV7lpV:*>yO0O.m#8&q.lsqyl-dH1<H8; cl>!rhu0zihsd;q.crj.l>2d>q>8dR. ;29Zuoou6",
"11*ZO0.kqq-2*>qfyyl-&1H:q-&>Rq>#8d>>;*9q m@-mlyyp j>= .c;sq>&d-l+%SS#m@&29qyuooo",
"8*;ZOoO.k>xd>kms9D>>;2*d;2Sd-k -;-yc ;d;%l+yh%>>-qZyc..l&*&d:-nuimS1<dd#>%qmluo5",
"--% 3Oozy>!-y$m8H8;-j-=981Hdj..l>kOoM ;2=c406jd*9q.0oOcjN1Hd-nO4i%S1112>f+la9l$X",
"ui.  3OO+q,+OG7*89L.uPyj*H2%.zulrmMXXMq;>lOo0.>#q604gc-2SS&m+OoOc>S1H*-vOul&H:q+",
"5oOc  +u$++zoG7&>hiooOy=*dj.0ou #;k$4Xp9&=nzozmrvzouy-21~#m+zo0.m#<12-vzoOl2^H;-",
"O0XO+/qcgOX0X6j;fgooO+>8*-.0oX.%2<wluXl;H*=.0umryOOy>811<DyiuuAhI2N~;vzoo6 &<*88",
"p.0ogyqqyuoX6q;;yXoup@dd%cOoXnR;S1<rl6Z;HHdjvimry6n-2H11<#-mm%%qUq-2r+0o$ rB;m;S",
"%lbO0zh@mcO6lD*2q.6l>Ndj.XXX.-#Nd&&9jlj;82;Dqy@;qlq>;&&282;r;B;miO.j-l.. r2rh.%N",
"lq%.Jols-l.q%ks*&rr&22m.OoXn-22slnncl-&8;q3n >28&>qyc3yq&>lnha;%OoO6l->rd2eluum2",
".ljZ$Olas-j9-+hs2<<8&-nXoX.-#2slu0O. ;2;q.OOldHS&jnu0O+m&%i0uZjq.Oooi r22;Uuo0y-",
"06ymk. ;B&;d=iil;<H&%nGXX.mw2@lu4oGl98;q.OoOZ2H2-nO44M ;2,i44uyqqnO4On-#;qi4oX$.",
"o4$-9%r22#;d=u4glr2rlOoOnjd12q$oJ6 ;8S>+z4uy-N#m+Oo0.q;HK;k604bVr-lflqrd>y44u+$O",
"04u=*ddd>--&>.4ogl-jlug.qr28;k$O$l=&8S-.0up>2N-+zoO+q;282;-pu0uV22r@--;d-.4MZ%+O",
"+iu=8H2=lcl:&q$4ouy qh qqjjj%qhhhqqjD2-+$p>81NqOoOn-d2rjjjqqy6.k81*>mm;&-y$krdkg",
"@hc>88>yuupdH#k$uu. >;rjn6$.l,;&r .6lDmyl>81^NkOX.%w2;k66.yj-Vlm8S;l66q;> Z9t8R.",
"2sm;2rlgoOl2^SrklpZ-;89ZOooulsS1dkXouhLq>2111Nq$.q;2r $oXuy>;>->2;quool9;>=*18D ",
"22NS#ygo4iqB<2#999w22slOXJgl=;22rkiXXulr2222NN%l@#d>luXX$l-;d;&&dmiXXuqd2d;d2222",
"=#~1;.4oihs2#Rqqq=;w>luoF$lqq kqqqV60Xl9#> q>N;s22DluF4ulqq   -a;k4oulr2w> kqm;S",
"+m2<9+Ouls8dj$OOup%%yOoXGp-(6XXuy=:huOl>=yXGp;8S1#huoXuv- $XXgn%shXOvs22-nXXu+>8",
"O.q;an+Le2;q.XoOfqVcuoX6hq(6XoO+-&8;k$hs-nooulaK1#hOoulql.XoO+-;;hilr2;%+Oo0+-BS",
".n ;;q-;2;q$44gyse%f..n ;-.0ou.k>2SS;L-#rkuX4uh;82,y+l=>.04Gn-2<2-k9*:q.4oO+%2<1",
">>;**#22;qP4oOfrN8Ba>>s;8>.4Opqq sSSN#28NrluXX6 :*&ss;&a.0Oy-2<1<d;2&q.OoOn-211S",
"mm-&B>--%qklphs811H&>m%r8&mll lyc-N#>-;818eqllZj&2;-m>&&qllqm-rd2;j--% lp @21H#@",
"..yr;h++f%9;9r&S1)1:q++ :*d;=h.uim2jc.q;<HN;s>9&8djy.ls*&;>qy.f-;-c.y%s99;#8H8>k",
"44i->cO0ih;*d@-rN119lz46q;2#,cO4um#lO4.q;*d>j=&S1wkO0iV9*&-ygoihs OX$ 92dr-rd8rm",
"o0.>ryuoz+,&;f+l>2S;hO4O.j#>lu4z+@& uo0.%99l.y-2Hdquo06q&9lu40.qaquFX6jd;qcyR##;",
"u.qwd-vzoul;>u4Oy@&#-yuXXy>q640Aq;*>ygozf--$oXnj22>pGoJ3rRMo0.qs&>puools-v4X_j#S",
"cq&<H8-+zulI>.Xozc-#2>yOoy>V64ih#N22>nOXy--.0oO.>&2=yOO+rRO4iq;<H8>yO4ps@f0o0PR#",
"-;1111#m..l;&q60oOp>2N-cOysqc.hs2#>2d-n$l>;q.OoOy=dd-y6y9j$6h;81118-yul9;m.0o4+L",
"8SS822Brqlq&89hiuM.q;H8>ck;% %;2rkc>88-lq9*9q6OXX.jd2shl;=yq92N228S8rlq;*;q.zXXO",
"~<8>qhlhV-;2;qq%jj%>d~~2s;2;;&d9l$Q=812r;d;%  CXoO.%;2;9*&D#d>qhm;<189;2;-q cOoo",
"#;a .u0Gls*;q.q2<8&99;#!N<1HH*rkgou=818&2#>cc% .Oo0.m#8H1H<NrluO.-S^1H8;qlZ>-+OX",
"_+y%q.40f>alium812jy._nq211`8>ygoou=8<rm->-.Ocq%.0oz.h;111S>luo46-S^1Hek$$l;2>yg",
"o4ulqliO.lhiozq2d-yOoO.7*118DyOo4up98;k+k--$oOlml.Oo4iq#<NsluoouZ;11S#q$oOlB18-f",
"ooX$p7l.M$i4ou%;mcO44$ ;8SSrkbz0il9*;qigl-@PoXMy%qnO4gcjdek.O4gy>2S1Bq.0ouh21S#e",
"cuo4ilkh+u4ouh9;pOoO+q;2s;2;,Uhhm929q$40y>;q.Xo6=;>qlhq>*#/qhllkm-r8;vzoul>*d>;N",
"qyG44ik-ki4Oc-2dluOc%#2elq:#9>>;&88m.4oOl9txq$O.r22r>>>;82r>s9>qy+Z9svuuy-d:-l>8",
"mqyuo4ls-yuc -d2-ll%;*9 iy9;9>>dH12ZOoz+j21H; yLw2#D-,>98d>-rd;%uoukmhfZ-#2-yi%*",
"ykTnO4lssml--Zj:&#;&&9 $Xns-l+yj2H2 $uy-;2*2&;;;29qy.+l-&>y.y->mioouyq@ed;-cOOh9",
"unqqvik9;s>&=$c%B118sk$oXysqPo0.-d8>qk>2Bs%-r818; 64ogy-&jMoz+kqyi4oM ;N2=nzoO+L",
"o0.-@ljd22&*=uX6%d89lOoX$q;-yOo0n>S822<<rfgMl;82hu4Fuy>88>CO44.V>q6u$n-#sf04Oiiu",
"ooG=&9&2;D>&>uoX.%;=y4oikr2wjC0o$-S111'<>.oouh9;yOoup>N1<&%cOouV&;-mm%;d-+oO+h.O",
"OOu=8SS&mlk;s+OXX.qjliiy>w229 6O.-S1H8*d-nOoouh-l6if>88222;q.ObV2H82#&8N-nO.m;kg",
"hc6=81#q..l#2-nOoX.Zj--%hffp 7 y.jS12%Zl kygo4ilm->;22-lffhq 3.V212-ll@;-f.Rw2qi",
";%l9*#qP4ul#12-yc_yR;2;q6OX$l>;>qsS2-.OOf->l++yk;8SNw-cOO$f>rjq,2B-+OOhss-md1<@l",
"82#8& 60ouh21S2;99;2N#q$Oo4y=*8*&8*%.Oozfs*;r99;81Hxq6Xo4n>d*d&B2-.Oo4l;*2B<1S2;",
";2H1;yXoOn=88;>@-rd2#R.XoO.hj>>>sd2ZOoX.-#29--->8<d%.4o0.kj>>-s;; OoX.,2*#>DDs#N",
"L>81;+zOnjd29hyyfR99%.OXO+qhfynym;dyX0.R;#r nyyq;;%czo06  yyyyq>shXX.m;29qyny ;<",
"iv-Bs+iy-&B@fu4Onkql64oOc qyu0O.TxdfM3-dd>fu0OC mh.zoz.lqyg4O.qs9hu.m#d>li0O.q;<",
"6cq;;lh-&:=ygo0$q-qy.u$y--yu40$k982qf-2t;kuo4ik-ml.uicq,yuo4$ 92&%y,;w-yu44bhr81",
"  m#d=9&&=czoX.qdd9%  q=*>.40.Le<1Ss>2H<>+o4$q;2@q  q-;s.o4$ ;t18;-B2>yOo4$ ;S11",
"99;N8#&dD 6ugPmwHHt2;9;&S9yuih>dNSS2#2<S>+4uh#SS#;999:2;nOul>d*882;&Iq+ug.k;H18*",
"jj=22r-jqhhhhqe<1`1N;--rN&- hq%j@#8;-j;&@y$l>818;@-j->&&jklq%j=9*;-mqhhhhqD81S;=",
"OO.>ryMuc%&*d;;2S11;kuuyD2*&>l$u.-d uGl=jkZ-;&82RniOu.,2*drk6G.q;quO.%;2dx;B8N-p",
"5ou->+0oGp>2#qlq#11ry4oGy-d9 64o6jwlXoGckqTZl 9*;q.0oO+%&;k6Xoihsk4oz+-&;-lqs8&>",
"]ou->.0oo$ ;sPO.r<H9y4o0zl9R+X5o6jwfOooOl-j.0b%8K9yO5oOv9-iXooih>hX5ozhs>yO$q8HH"
};
