/* XPM */
static char *_b1a2d0e191843d0ac298d5a7b6fe71d2xqPmhsk9oUztoPo[] = {
/* columns rows colors chars-per-pixel */
"80 80 228 2 ",
"   c None",
".  c #020101",
"X  c #090606",
"o  c #05090C",
"O  c #0C0B0B",
"+  c #060608",
"@  c #120C0B",
"#  c #1A0F0F",
"$  c #020A15",
"%  c #010B1E",
"&  c #060B14",
"*  c #09111D",
"=  c #1C1312",
"-  c #1A1B1B",
";  c #151315",
":  c #17120F",
">  c #241616",
",  c #261919",
"<  c #2C1C1C",
"1  c #241A17",
"2  c #311C1C",
"3  c #2B211B",
"4  c #010D24",
"5  c #061628",
"6  c #191A25",
"7  c #091A37",
"8  c #111F36",
"9  c #092836",
"0  c #1B2232",
"q  c #242424",
"w  c #2A2929",
"e  c #2E2020",
"r  c #332322",
"t  c #392324",
"y  c #392A28",
"u  c #3E3E3E",
"i  c #353131",
"p  c #232C36",
"a  c #442B2B",
"s  c #4B2C2D",
"d  c #422727",
"f  c #512F2F",
"g  c #49372B",
"h  c #4E3633",
"j  c #533434",
"k  c #5B3535",
"l  c #5D3A3A",
"z  c #583938",
"x  c #523D2F",
"c  c #633D3D",
"v  c #693C3D",
"b  c #594437",
"n  c #65473D",
"m  c #061E47",
"M  c #102548",
"N  c #112648",
"B  c #00354F",
"V  c #003047",
"C  c #05245A",
"Z  c #003750",
"A  c #053B55",
"S  c #122E52",
"D  c #23314C",
"F  c #273956",
"G  c #2D374B",
"H  c #163567",
"J  c #012C75",
"K  c #002E7C",
"L  c #07327C",
"P  c #193C79",
"I  c #042765",
"U  c #653F40",
"Y  c #174459",
"T  c #0E425A",
"R  c #02496C",
"E  c #1B4D63",
"W  c #1B417F",
"Q  c #00547D",
"!  c #2F4464",
"~  c #314667",
"^  c #314C7B",
"/  c #374457",
"(  c gray27",
")  c #4C4C4C",
"_  c #4F4747",
"`  c #4B5456",
"'  c #5C5C5C",
"]  c #535353",
"[  c #554E53",
"{  c #664242",
"}  c #6B4242",
"|  c #734444",
" . c #764848",
".. c #7D4A4A",
"X. c #784947",
"o. c #6A5245",
"O. c #755C4B",
"+. c #785B49",
"@. c #6C5B57",
"#. c #7E5655",
"$. c #765F58",
"%. c #76635A",
"&. c #575F61",
"*. c #655F60",
"=. c #4D6269",
"-. c #4F6D78",
";. c #636262",
":. c #6A6C6D",
">. c #7A7A7A",
",. c #757575",
"<. c #75696F",
"1. c #814E4E",
"2. c #814B4B",
"3. c #834F50",
"4. c #875252",
"5. c #845151",
"6. c #885252",
"7. c #895353",
"8. c #895252",
"9. c #8A5353",
"0. c #8B5454",
"q. c #8C5756",
"w. c #895353",
"e. c #8A5A58",
"r. c #915D5D",
"t. c #914F4E",
"y. c #A75A56",
"u. c #896B59",
"i. c #936956",
"p. c #8F705C",
"a. c #906D57",
"s. c #A2795E",
"d. c #AE655D",
"f. c #966463",
"g. c #986766",
"h. c #9A6867",
"j. c #9D6A69",
"k. c #9B6968",
"l. c #8F746C",
"z. c #A16C65",
"x. c #A47F67",
"c. c #9A8576",
"v. c #A48069",
"b. c #AC8268",
"n. c #BA9279",
"m. c #AC8875",
"M. c #C79879",
"N. c #D29A7A",
"B. c #CB8D78",
"V. c #D9A17D",
"C. c #033383",
"Z. c #0B3781",
"A. c #0D3D8E",
"S. c #0F3B85",
"D. c #073788",
"F. c #1C4383",
"G. c #045781",
"H. c #174798",
"J. c #0F4091",
"K. c #254686",
"L. c #3F5A85",
"P. c #3F5B88",
"I. c #23519D",
"U. c #2B5296",
"Y. c #1F52A5",
"T. c #1B4EA1",
"R. c #2253A2",
"E. c #2559AE",
"W. c #2759AB",
"Q. c #265BB1",
"!. c #285FB8",
"~. c #345BA0",
"^. c #3E63A7",
"/. c #3262B1",
"(. c #565E82",
"). c #5C6283",
"_. c #4E7484",
"`. c #52758E",
"'. c #716D83",
"]. c #4065A7",
"[. c #4569A8",
"{. c #577CB9",
"}. c #4A72B7",
"|. c #897983",
" X c #927D81",
".X c #838484",
"XX c #8A8A8A",
"oX c #9C8281",
"OX c #9B9B9B",
"+X c #919191",
"@X c #A18583",
"#X c #B38F83",
"$X c #AB9889",
"%X c #B99386",
"&X c #A89192",
"*X c #BFA490",
"=X c #A6A6A6",
"-X c #ABABAB",
";X c #B7B7B7",
":X c #C99C81",
">X c #D49981",
",X c #CEA286",
"<X c #D2A288",
"1X c #D9A688",
"2X c #E5AB84",
"3X c #E9AC84",
"4X c #E4AD8A",
"5X c #E5B18E",
"6X c #EAB089",
"7X c #E6B493",
"8X c #E9B695",
"9X c #EBB996",
"0X c #EAB99A",
"qX c #F3B388",
"wX c #E7BFA5",
"eX c #EDC6AC",
"rX c #B1C1C8",
"tX c #C2C2C2",
"yX c #CECECE",
"uX c #C8C5C5",
"iX c #D2D2D2",
"pX c gray86",
"aX c #D4D2D5",
"sX c #DDE4E7",
"dX c #E5E5E5",
"fX c #E8EBEC",
"gX c #FDFDFD",
"hX c #F3F3F3",
/* pixels */
"                                                                                                                                                                ",
"                                                                                                                                                                ",
"                                                                                  O + + + + . + + +                                                             ",
"                                                                                  . . . . . . . . .                                                             ",
"                                                                                  > > > 2 > , > e r r                                                           ",
"                                                      dXdX                    . X j c | 2.2.2.2.f.j.j . +                                                       ",
"                                                      dXdX                    . X j U U U 2...2.i.k.j X @                                                       ",
"                                                                              . X k U v U v U n ..3. .U j + +                                                   ",
"                                                                              . + j c c c c c c X.t.2.2.c X .                                                   ",
"                                                                      . . . + . . > < < , < < < v U X.2.v . .                                                   ",
"                                                                    . . . . . . . . . . . . . . s c v 2.v . .                                                   ",
"                                                                    e < e < < < < < < < e e e e d s f c a . .                                                   ",
"                                                          O . . . @ e.g.g.g.g.g.g.g.g.g.g.g.g.r.> . . . . . .                                                   ",
"                                                          @ + X + = e.j.k.k.k.k.h.h.k.k.h.h.j.f., X O X + O O                                                   ",
"                                                  + + . . j } | } | 0.q.e.q.q.q.q.q.q.q.0.r.k.k.e.#.5.#.#.#.#.< +                                               ",
"                                                  . . . . l q.9.q.6.6.6.4.6.0.4.4.6.7.4.7.q.k.k.j.j.j.j.j.k.f., . O                                             ",
"                                              . < s s s s | 9.6.6.0.6.6.6.4.6.6.4.0.6.0.0.0.r.r.r.r.f.j.h.j.g.{ z i +                                           ",
"                                            + . t 9.9.9.9.6.6.6.6.6.0.6.6.0.6.6.6.4.0.0.6.6.6.6.7.7.r.j.j.j.j.j.z.z . +                                         ",
"                                            . . t 8.6.6.6.6.6.6.6.6.6.6.6.6.6.6.6.6.6.6.4.6.6.6.w.5.r.f.f.f.f.g.z.{ , ,                                         ",
"                                            + . t 6.6.6.6.6.6.6.6.0.6.6.6.6.6.6.6.6.6.6.6.6.6.6.w.w.7.7.0.6.0.f.j.k.g.#.O .                                     ",
"                                            O . t 9.6.6.6.6.6.3.3.1.6.6.6.6.6.6.6.6.6.6.6.6.6.6.w.w.6.6.6.6.0.f.k.j.j.#.X .                                     ",
"                                        O + j }  .6.6.6.6.6.0.c = < ..9.6.6.6.6.6.6.6.6.6.4.6.6.w.5.4.4.6.6.0.0.e.f.j.#.O .                                     ",
"                                        . . c 0.6.0.9.6.6.6.q.k . @  .6.6.6.6.6.6.6.6.0.0.6.0.6.4.4.w.0.0.6.0.4.4.r.j.5.+ .                                     ",
"                                        X . c 9.0.6.0.6.6.l s t < t ..0.6.6.6.6.6.4.0.6.6.0.6.6.4.w.4.4.6.0.6.0.7.q.f...X .                                     ",
"                                        . . c 9.6.6.6.0.0.e . > c } 5.0.w.0.w.w.w.4.0.0.0.4.0.4.6.6.6.6.6.0.6.0.7.6.7.} X .                                     ",
"                                        = = } 6.6.6.6.1...< . = h j ......3.5...3.4.4.4.6.6.6.6.6.6.6.6.4.6.6.6.6.6.7. .> =                                     ",
"                                    . #  .5.4.7.4.0.3.} U = . . . @ k U c { U U { 3.w.0.0.0.4.6.6.6.6.6.6.6.6.6.6.6.7.4.1...< . O                               ",
"                                    . # ..0.4.4.4.4.1.c l , . . . O j U l c l l U ..4.4.4.4.4.4.4.6.6.6.6.6.6.4.6.6.6.6.6.4.> . O                               ",
"                                    . # ..6.w.w...} c > # S F.F.W P 6 # ; = # = > c } } } } } } } } ..w.4.4.6.4.6.6.6.6.6.1., . +                               ",
"                                    . # ..6.7.0. .{ k + . P Q.Q.Q.I.$ . . . . . . j U c { c c c c U  .0.0.4.0.0.0.6.0.6.6.4.> . O                               ",
"                                    . # ..w... .l t y D D K.H.T.W.R.m 7 m S N D D y t t t t t t t t a s k  . .4.6.6.6.6.6.6.> . O                               ",
"                                    . # 5.4.} U t . * [.}.H.K A.Q.R.C.C.H.Q./.}.[.* . . . . . . . . . . # l U 1.6.6.9.6.6.1.> . O                               ",
"                                    . #  .3.} c t . ; ~.[.U.K.K.R.R.K.W U.Y.W.}.^.8 % % $ $ & & > < ; $ 6 f j  .3.3.3.3.8.3.> . +                               ",
"                                    . @ l { c U t . $ K Z. X1X.XC.F.%X>X(.C.A.E.E.Y.R.S.J J J L x.>X:.J C + X j U U U U 3.8., . O                               ",
"                                    . @ z U c c t . $ J L  XV.oXC.S.>X3X(.K A.E.E.E.Q.H.K K C.Z.#X2X'.C.I + . s U U c U 1.8., . O                               ",
"                                    . @ z c 2 = N P ^  X@Xo.g w 4 0 :X7X%X@X'.A.A.A.A.).@X<.5 5 a h $. X,.C C 6 = y U U 6.1.> . O                               ",
"                                    . @ k c = . N Q.[.1XV.b . . . = :X9X6X3X@XC.K C.K l.qXb.X . . . +.qX%XZ.K % . < c } 6.4.> . +                               ",
"                                    . @ l l = . N W.~.u.u.i % p ' ;.p.p.M.6X%X(.).-.(.<.a.o.5 * ` ;.%.i.@.L K % . < c {  .X.> . O                               ",
"                                    . @ l c = . M Q.H.& . 9 A `.gXdXq . p.9X6X2X2X2X3Xb . & B Y aXgX>.. 4 K K % . < c l c l = . O                               ",
"                                    . @ z l = . M W.U.6 > 9 B `.sXuX- . p.8X7X2X2X2X3XO.; - B Y rXsX:.. % K K % . < c c c l = . O                               ",
"                                    . @ z c = . M E.^.n.M.` Z A E Y o . p.9X7X7X7X7X7X1X<Xc.A Z E E 8 . 4 J J % . < c c c l = . O                               ",
"                                    . @ z c = . M E.^.<X2X=.Z A Z B o . p.9X7X7X7X7X7X7X9X$XA B Z Z 5 . % K K 4 . < c { c l = . O                               ",
"                                        > > + . M E.^.<X2X-.R A Z T %.s.:X7X5X2X4X7X7X7X9X$XR R T B ] a.$.C.J 4 . < c j < 1 =                                   ",
"                                        . . . . M W.^.<X2X-.G.R B Y ,X0X7X7X5X2X2X7X7X7X0X$XG.Q A B <.qX#XZ.K % . < c j . .                                     ",
"                                        . . . . M E.^.<X2X.X_.-.=.:.<X0X7X7X7X5X2X7X7X7X9X*X_._.=.=.c.3X#XZ.K % . < c j X .                                     ",
"                                            + . M Q.^.,X2X5X7X7X7X7X7X7X7X7X7X0X7X7X7X7X7X7X7X7X7X7X5X3X#XZ.K 4 . < c j + .                                     ",
"                                            . . M E.^.:X,X1X7X7X7X7X7X7X7X7X7X1X1X9X8X7X7X7X7X7X7X7XV.N.x.A.L % . < z s + .                                     ",
"                                            + . M Q.!.].[.&X2X4X7X7X7X7X7X7X>Xy.d.1X7X7X7X7X9X7X2X6X+.= p R.T.5 . . @ @                                         ",
"                                            + . N W.W.E.E.&X2X4X7X7X8X7X7X8XN.t.y.1X8X7X7X7X7X7X2X3Xn X 5 R.W.5 . . . .                                         ",
"                                                9 N S R.E.` l a.4X4X7X7X7X7X4XB.B.5X8X5X8X5X6X1X+.b / H H M M 5                                                 ",
"                                                  . % R.W.7 . x 2X6X8X9X8X8X7X0X8X8X8X9X8X7X6XV.3 . S !.K.o .                                                   ",
"                                                  . * P W / ( @.s.s.x.v.v.x.v.v.v.v.v.v.v.v.s.p.] ) ~ W H o +                                                   ",
"                                                      X + =XgXOX. . . . . . . X . . . + . . . ; uXgX>.. .                                                       ",
"                                                      . . OXhXOX@ ; O ; ; O O . . O : : O ; : - ;XhX>.. +                                                       ",
"                                                          - q ] =X=X=X=X=X-X,.. O +X=X=X=X=X-XOX( w i                                                           ",
"                                                          + . ) yXiXyXiXiXiX+X. ; -XiXyXyXyXiXtXw .                                                             ",
"                                                        O :.XX,.' :.;XyXXX' :.XX.X;.;.OXyX-X;.;..XXX' .                                                         ",
"                                                      . . -XgX=X. - ;XyX] . ) gXdXe . ,.aXOX+ O yXgX>.. .                                                       ",
"                                                      ( u +XtX>.. ; .XOX_ # [ iXuXa # @.=X,.. O +XtX>.u u                                                       ",
"                                                  . w pXhX] + . . . + X f ..X.t.2.2.2.t + + . . + O .XgXtX: .                                                   ",
"                                                  + w dXhX` . . . X . X f 2.2.2.2.2.2.t . . . . . . >.gXtX; O                                                   ",
"                                            O . b n.n.wXeXb . . . X f v n 2.2.2.2.2.X.v v s . . . . %.eX0Xn.m.y +                                               ",
"                                            . . n 0X9X9X7Xh . . . X v t.2.2.2.2.2.2...2.2.c . . . . +.9X8X9X5Xy . O                                             ",
"                                            + . r +.+.+.O.g   + . @ v 2.2.2.v d s n 2.2.2.k . . O   { +.O.O.O.= . O                                             ",
"                                            + . . . . . .       . O v 2.2.2.k . + v 2.2.2.c . .       . . . . . . O                                             ",
"                                            O . . + . + +       . + k v v v a . X f v v c s . .       + + + + . +                                               ",
"                                                                . . X . X X . . . X X X + + . +                                                                 ",
"                                                                . . + . . . . . . . . . . . . .                                                                 ",
"                                                                . o ^ -.P.(.F . + ~ L.L.L.! . .                                                                 ",
"                                                                . * [.{.{.{.^ . O [.{.{.{.L.. .                                                                 ",
"                                                                . + F ! ! ! D . + F ! ! ! D . .                                                                 ",
"                                                                . . . . . . . . . . . . . . . .                                                                 ",
"                                                                . . 1 3 O . O w q + . # 3 > . .                                                                 ",
"                                                                . = n.1Xb . ( dXiXq . +.1Xs.+ .                                                                 ",
"                                                                . = :X6Xb . ) gXfXw . u.0Xb.+ .                                                                 ",
"                                                                . @ q.z.y . ) gXfXq . z z.O.. .                                                                 ",
"                                                                . O v 2.< . ) gXdXw . s 2.c . .                                                                 ",
"                                                                . + a f = . ( dXiXq . , s t . X                                                                 ",
"                                                                . . . . . . u tX;X1 . . . . . O                                                                 ",
"                                                                + . . . . . u tX-Xq . . . . . O                                                                 "
};
