/* XPM */
static char *e1edf8c23ed64c7ca5a939260d6b48beqSgyEJ7nzBYhdZeL[] = {
/* columns rows colors chars-per-pixel */
"80 80 99 2 ",
"   c None",
".  c #232E34",
"X  c #263137",
"o  c #273238",
"O  c #2B353B",
"+  c #2F393F",
"@  c #313338",
"#  c #3C353A",
"$  c #3C393F",
"%  c #42363B",
"&  c #4A373C",
"*  c #57393D",
"=  c #5A3A3E",
"-  c #603B3E",
";  c #2F3A40",
":  c #323C42",
">  c #354045",
",  c #3C464B",
"<  c #3F494E",
"1  c #40494F",
"2  c #414B50",
"3  c #5D4D51",
"4  c #475054",
"5  c #764749",
"6  c #555D62",
"7  c #586064",
"8  c #5F676C",
"9  c #61696C",
"0  c #686F74",
"q  c #697074",
"w  c #707679",
"e  c #874143",
"r  c #8B4243",
"t  c #B14847",
"y  c #C04B49",
"u  c #CC4D4B",
"i  c #D14D4B",
"p  c #DA4F4C",
"a  c #E74F4B",
"s  c #ED4F4B",
"d  c #E5514E",
"f  c #EE524E",
"g  c #F0534F",
"h  c #EC5652",
"j  c #EE5A56",
"k  c #EF625F",
"l  c #CB7C7B",
"z  c #D47371",
"x  c #EF6562",
"c  c #EF6865",
"v  c #F06662",
"b  c #F06F6C",
"n  c #EB706D",
"m  c #F1726F",
"M  c #E77A77",
"N  c #F17976",
"B  c #F27E7B",
"V  c #777D81",
"C  c #797E81",
"Z  c #9B8789",
"A  c #8B9194",
"S  c #959A9C",
"D  c #9EA1A3",
"F  c #A5AAAC",
"G  c #ABADAD",
"H  c #AEAFB0",
"J  c #AFB0B0",
"K  c #BDBDBD",
"L  c #F3918F",
"P  c #EE9492",
"I  c #F49492",
"U  c #F59896",
"Y  c #F49D9B",
"T  c #C9A09F",
"R  c #F5A19F",
"E  c #CBA1A0",
"W  c #F5A4A3",
"Q  c #F7B4B3",
"!  c #F7B8B7",
"~  c #F8B9B7",
"^  c #F8BBB9",
"/  c #BEC1C1",
"(  c #C2C3C4",
")  c #CACACA",
"_  c #CFD0D1",
"`  c #D1D1D1",
"'  c #DEDEDE",
"]  c #F8C7C6",
"[  c #F9C9C7",
"{  c #FAD6D5",
"}  c #FBD8D7",
"|  c #DFE1E2",
" . c #E1E1E1",
".. c #EEEEEE",
"X. c #FCEDED",
"o. c #F1F1F1",
"O. c #FDF3F3",
"+. c #F7F8F8",
"@. c #FFFEFE",
/* pixels */
"                                                                                                                                                                ",
"                                                                                                                                                                ",
"                                                                                                                                                                ",
"                                                                                                                                                                ",
"                                                                                                                                                                ",
"                                                                                                                                                                ",
"                                                                                                                                                                ",
"                                                                                                                                                                ",
"                                                                                                                                                                ",
"                                                                                                                                                                ",
"                                                                                                                                                                ",
"                                                                                                                                                                ",
"                                                                                                                                                                ",
"                                                    o X o o O X o o o o o o o o o o o o o o o X X O o X X X                                                     ",
"                                                    o X X X X X o X o o o X o X o X o o o o o X o o o o X O                                                     ",
"                                                    o X X O X X X X X X X X X X X X X X X X X X X X o o X o                                                     ",
"                                                    o o o X : < , , , $ # # # # # # # # $ , , < , + X O X o                                                     ",
"                                O O O O O + O O O o o o X X S  . . .' z i i i i i i i i z ' | |  .A X X X o O O O O O O O O O O                                 ",
"                                o X X o X X X X X X o o X X F @.@.@.@.N s g g f f g f g B @.@.@.@.F X X o X X X o X X X X X o o                                 ",
"                                o X o o o o o X o o o o X X F @.@.@.O.B s h f f f f f f B O.@.@.@.F X X o o o o o o o o o o o o                                 ",
"                                o X o o X X X X o X X X X X F @.@.@.@.B s f f g f f f s B @.@.@.@.F X X X X X X X X X o o o X o                                 ",
"                              : o X o X % e e e r r e r r r l W W W Y x f f f h h g f f x R W W W l r r r e r r e r e % X o o o :                               ",
"                      ; X o o o o o o X = f g g g g g g g g f f s f f f h g f f f f f f f f s f s f g g f g g g f f d = X o o o o o o o O                       ",
"                      O X o o o o o X X = d h f f f f f f f g h f f f f f g f g h f g h f f f f f f f f f f f f f h d * X o o o o o o o O                       ",
"                      O o o o X X X X X = d f f f f f f f h f f f f g s f f s f f f s f f f h f f f h f f f f f f f d = X X X X . o o X O                       ",
"                      + X o X O % & & % 5 n m m m k f f f f f g f f h c b b b b b m b b x f f f f f g f f f x m m m n 5 % & & % O o o o O                       ",
"                      O X o X % u d d p M O.O.O.O.Q f f f g f f h f j [ X.O.X.O.O.X.X.O.] h f f f g f f f f Q O.O.O.X.M p d d u # X o X O                       ",
"                      + X o X % p g f g B O.@.@.@.! f f h g f g f f j { @.@.@.@.@.@.@.@.{ j f f h f f f f f ^ @.@.@.O.B f f f p % X o o O                       ",
"                      ; X X X % p f f f B O.@.@.@.! f f f f f h h f j { @.@.@.@.@.@.@.@.{ j f f f f f h f f ~ @.@.@.+.B f f g p $ X X X O                       ",
"                      O X X X % p f f f B @.@.@.@.Q f f f f f f f f j } @.@.@.@.@.@.@.@.{ j f f g f f g f f ^ @.@.@.O.B f f f p % X o X O                       ",
"                      O X o X % p g f f k L L L L N f f f f f f f f j } @.@.@.@.@.@.@.@.{ h f h f f f f f f N L I I L k f f f p % X X X ;                       ",
"                      O o o X % p f f h f f f f f f f f f f f h f f j } @.@.@.@.@.@.@.@.{ j f f g f g h f f f f s f f f f f f p % X o X O                       ",
"                      O X o X % p g g g f g f f f f g h h f f f h f j { @.@.@.@.@.@.@.@.{ j f f f f f h f f f f f f g f f f f p % X X X O                       ",
"                      ; X o X % p g g g g h f f f f s s s s f f f f j } @.@.@.@.@.@.@.@.{ j f f f f f s s f f f h f h g g g g p % X X X ;                       ",
"                      O o o X # t y t y u f f f f k N N N N v f f f j ! } } } { } { } } ! j f f f v N N B N k f f f f u u t y t # X o o O                       ",
"                      O X o X o @ @ @ @ - d f g s I O.@.O.O.U s g f f j j j j j j j j j j f f f s Y O.O.O.O.L f f f d - O @ @ @ o X o X O                       ",
"                      O X O X X o o X X = d g f f U @.@.@.@.Y f f h f f h f f f f f f f f f f f f Y @.@.@.@.I f f g d * X X X X X o o X ;                       ",
"                      O X X X X o o X X = d g h s I @.@.@.@.Y f f f f f f f s f f f f f f f f f f Y @.@.@.@.I s f h d = X X o X X X X X O                       ",
"                      O o o o X o X X X = d f d d P +.+.+.+.Y f h h h h h h h h h h h h h h h h f Y +.+.+.+.P a d d d * X o X o O o o X ;                       ",
"                                o X X X @ = = = = 3 9 9 8 8 Z E T T T T T T T T T T T T T T T T T Z 8 9 9 9 3 = = - = @ X o o o                                 ",
"                                o X X o X X X X X X . X . . C / K K K K K K K K K K K K K K K K / C . . . . . X X X X X X o X o                                 ",
"                                o X X O o o o X X X X X X . C / K K K K K K K K K K K K K K K K E C . o X o o o o X o o o o X o                                 ",
"                                o X X X X X o o X X . . . . V K K K K K K K K K K K K K K K K K / C . X . . . o o o X X X X o o                                 ",
"                                O O O O O o X X . < 0 0 0 0 D ) ) ( ) ) ) ) ( ) ) ( ) ) ) ( ) ) _ D 6 7 7 7 , o o X o O + O O O                                 ",
"                                          o X o . V ........ .' ' ' ' ' '  .' ' ' ' ' ' '  .' ' | _ K K K K 9 . o X o                                           ",
"                                          o X o . V ..........'  .'  . .'  . .' | '  . . . . .' | _ K K K K 9 . o X o                                           ",
"                                          X X o . V ..........'  . . . . . .'  . . . . .'  .'  .| _ K K K K 9 . o X o                                           ",
"                                          O X o . w ........ .' '  .'  . . . . .'  . .'  . . . .| ) K K K K 9 X o X X                                           ",
"                                          o X o . V ........ .' '  .'  . .'  . . .'  .' '  .'  .| _ K K K K 9 X o X o                                           ",
"                                          o o o . C ..........'  . . . . . . .'  . . . . . . . .' _ K K K K 9 X o X O                                           ",
"                                          o X o . C ........ .'  . . . . .'  . . .'  . . . .| ' | _ K K K K 9 X o o o                                           ",
"                                          o X o . C o.o.o.o...' ' ' ' '  . . .'  . . .'  .' ' | | _ K K K K 9 X o X o                                           ",
"                                          o o X X 6 S S S S ( .. . ...' '  . . . . . . .' _ _ _ _ G C C C C 4 X o o o                                           ",
"                                          o X o X . X X . . S o.o.o.o. .'  . . . .' ' ' ` / K K K V X X X X X o o o o                                           ",
"                                          o X o o o o o X X S o....... .'  . . . . . . .` / / / K C X o X X X o o o o                                           ",
"                                          o o X X X o o X . S o.o.o.o. . . . . . . . . .' / / E / C X X X X X X o X o                                           ",
"                                          o o o o o o o X X A ' ` ' ' ) ) _ ) _ ) ) _ ) ( J G G J w . o o o o o o o o                                           ",
"                                                    o X o o : 2 2 < 1 1 2 1 < < 1 1 1 1 1 , , , , : o o o o                                                     ",
"                                                    o X o o X . X X X X X X X X X X . o X . X X . X o o X o                                                     ",
"                                                    o X o o o o X X X X X X X X X o o o o o o X o X o o X o                                                     ",
"                                                    o o o o o o o o o o X o o o o o o o o o o o o o o o o o                                                     ",
"                                                                                                                                                                ",
"                                                                                                                                                                ",
"                                                                                                                                                                ",
"                                                                                                                                                                ",
"                                                                                                                                                                ",
"                                                                                                                                                                ",
"                                                                                                                                                                ",
"                                                                                                                                                                ",
"                                                                                                                                                                ",
"                                                                                                                                                                ",
"                                                                                                                                                                ",
"                                                                                                                                                                ",
"                                                                                                                                                                ",
"                                                                                                                                                                ",
"                                                                                                                                                                ",
"                                                                                                                                                                ",
"                                                                                                                                                                ",
"                                                                                                                                                                ",
"                                                                                                                                                                "
};
