/* XPM */
static char *_5500cc84f764f578e9ba53859afb814YLsUaSmHk5iQMeaw[] = {
/* columns rows colors chars-per-pixel */
"40 40 118 2 ",
"   c None",
".  c #1E2C32",
"X  c #232E34",
"o  c #253137",
"O  c #273238",
"+  c #2A343A",
"@  c #2E393F",
"#  c #353439",
"$  c #3A353A",
"%  c #4A373C",
"&  c #4B383C",
"*  c #2F3A40",
"=  c #323C42",
"-  c #713E40",
";  c #7B3F41",
":  c #354146",
">  c #3B454A",
",  c #475155",
"<  c #465258",
"1  c #4A5358",
"2  c #7E4042",
"3  c #5F6569",
"4  c #696F72",
"5  c #6B7175",
"6  c #72777B",
"7  c #777C7F",
"8  c #813F41",
"9  c #824142",
"0  c #8A4243",
"q  c #8A4749",
"w  c #804B4D",
"e  c #8A484A",
"r  c #924344",
"t  c #984444",
"y  c #92494A",
"u  c #945253",
"i  c #A24646",
"p  c #CA4C4A",
"a  c #DF4D4A",
"s  c #DF504D",
"d  c #ED4F4B",
"f  c #E3504D",
"g  c #ED524E",
"h  c #F1534E",
"j  c #EE5753",
"k  c #EE5854",
"l  c #EF5E5A",
"z  c #F15E5A",
"x  c #EF615D",
"c  c #EF6360",
"v  c #F16E6A",
"b  c #F1716E",
"n  c #757C80",
"m  c #787D80",
"M  c #847D81",
"N  c #7D8285",
"B  c #7E8589",
"V  c #83868A",
"C  c #848A8D",
"Z  c #878E92",
"A  c #888D91",
"S  c #978D90",
"D  c #8D9295",
"F  c #94979A",
"G  c #A3999B",
"H  c #979EA2",
"J  c #9F9DA0",
"K  c #99A0A3",
"L  c #A1A4A5",
"P  c #B1B2B3",
"I  c #BDBEBE",
"U  c #CC8786",
"Y  c #D78381",
"T  c #D88381",
"R  c #E08F8E",
"E  c #F38785",
"W  c #F3918E",
"Q  c #ED9997",
"!  c #E19B99",
"~  c #F49390",
"^  c #F59A97",
"/  c #F59C9A",
"(  c #F5A19F",
")  c #C0BFBF",
"_  c #EDA6A4",
"`  c #F6A5A3",
"'  c #F6A9A7",
"]  c #F7B0AE",
"[  c #F8B0AE",
"{  c #BEC0C0",
"}  c #C1C1C1",
"|  c #C7C7C8",
" . c #CDCDCD",
".. c #D2D2D2",
"X. c #D7DADB",
"o. c #DDDDDD",
"O. c #FBDEDD",
"+. c #FCE0DF",
"@. c #DEDFE0",
"#. c #DFE0E0",
"$. c #E1E1E1",
"%. c gray92",
"&. c gray93",
"*. c #EEEDED",
"=. c #EDEFEF",
"-. c #EFEFEE",
";. c #EEEFEF",
":. c #EDEDED",
">. c #F1F1F0",
",. c #F2F2F1",
"<. c #F2F2F1",
"1. c #FDF1F1",
"2. c #FDF2F1",
"3. c #FDF2F2",
"4. c #FDF3F2",
"5. c #FDF3F3",
"6. c #FEF3F3",
"7. c white",
/* pixels */
"                                                                                ",
"                                                                                ",
"                                                                                ",
"                                                                                ",
"                      + O O O o O O O O O O O O O O O O +                       ",
"                      O O o X X X o o o o o o X X X O o O                       ",
"                    @ O X = B Z M 9 9 8 ; 8 w V A n = o O @                     ",
"          O O O O O o O X 1 ;.7.O.z j h j d b 1.7.X.= o O O O O O O +           ",
"          + O O o o o o . < ;.7.O.l g g j g b 5.7.X.: o o o o o o O O           ",
"        + O O # ; 2 2 2 8 u _ [ / k g j g g x ` [ ! e 9 2 2 2 - + o O           ",
"    + O O O X % f h h h j g g d g g g g g g g g d d h h h h h p # o O O O @     ",
"    O o O o o % a d d j g g g j g g d g g g g g g j g g g g g p # o o O O O     ",
"    O O # ; 8 u Q ( W j g g g g k ^ ( ( ( ( E g g g g g x / ( T q 9 - + X @     ",
"    O o % f h b 1.7.O.l g g g g v 4.7.7.7.7.O.j g g g d b 1.7.+.z h p # O O     ",
"    O O % s j b 1.7.O.l g j g g b 4.7.7.7.7.O.l g j g g b 6.7.+.z h p # O O     ",
"    O O % a d c ' ] / k g g g g b 4.7.7.7.7.O.l g g j g c ' ] / j h p # O O     ",
"    O o & f g g g g d g g g g g b 1.7.7.7.7.O.l d g g g g g g g g h p # O +     ",
"    O O & f h h g g g d g g g g v <.7.7.7.7.O.l g g d d f g g g h h p # o O     ",
"    O O $ 0 0 i f g x / ( W k g l ` ] ] ] ] / j d l / ( W k g s r r 2 # O +     ",
"    O o o o o % s g b 4.7.+.l g g g d g g d g g g v 4.7.O.l g p # o o X o O     ",
"    O O o o o & f h b 1.7.+.z g d g s f j g g g d v 1.7.O.z h p $ o o O o +     ",
"    @ + @ O o $ 0 r u F F G Y Y T T b Y Y Y Y Y T U J K S y r 9 + O O @ @       ",
"          + o o o o X X . > P I I I I I I I I I { L @ X X o O O o o O           ",
"          O o O o O o X . > P I I I I I I I I I I L * X o o O o O o +           ",
"          + + + O O : N V F |  . . .|  . . . . . .I 6 5 3 @ O O + +             ",
"                O X 1 $.>.&.$.$.$.$.$.$.$.$.$.$.$.X.) ) L @ O O                 ",
"                O X 1 $.;.%.$.$.o.$.$.$.$.$.$.$.$.o.) I L = O O                 ",
"                O X 1 $.;.%.$.o.$.o.$.$.$.o.o.$.$.X.) I L = O O                 ",
"                O X 1 $.*.%.$.$.$.$.$.$.$.$.$.$.$.X.) ) L = O +                 ",
"                O O 1 $.<.%.$.o.$.o.$.$.$.$.$.$.$.o.) ) L @ O O                 ",
"                O X > A F L $.%.$.$.$.o.$.$.o.....) V 7 4 + O O                 ",
"                O O O X X , $.-.%.$.$.$.$.$.X.) ) L @ X O O O +                 ",
"                + O + o o 1 $.<.;.$.$.$.$.%.o.} } L = O o O o O                 ",
"                @ + + O o : D F F A A A Z A C n n 4 @ o O @ @                   ",
"                      + o o o o X X X X X X X X X X X O +                       ",
"                      + O O o o O O O O O O o O O O O O O                       ",
"                      @ + + + + + + @ + + + + + @ O @ O                         ",
"                                                                                ",
"                                                                                ",
"                                                                                "
};
