/* XPM */
static char *ecb244422f284e048f6f430975e47be9FBqQa2HNaSp85JWA[] = {
/* columns rows colors chars-per-pixel */
"80 80 141 2 ",
"   c None",
".  c #574210",
"X  c #594411",
"o  c #644D13",
"O  c #645113",
"+  c #6D5415",
"@  c #6E5915",
"#  c #725616",
"$  c #785717",
"%  c #735B16",
"&  c #785817",
"*  c #7D5918",
"=  c #776417",
"-  c #786417",
";  c #7C6B18",
":  c #7F7119",
">  c #835C1A",
",  c #83651A",
"<  c #836D1A",
"1  c #8D691B",
"2  c #83741A",
"3  c #86791A",
"4  c #8C7D1B",
"5  c #9A741E",
"6  c #8D831C",
"7  c #92841C",
"8  c #9B861E",
"9  c #918A1C",
"0  c #9D8C1F",
"q  c #95911D",
"w  c #99951E",
"e  c #9C9A1F",
"r  c #A18A1F",
"t  c #A1941F",
"y  c #9F9F20",
"u  c #A29620",
"i  c #AD9422",
"p  c #A79E21",
"a  c #AA9C21",
"s  c #B29A23",
"d  c #BB9E24",
"f  c #A3A420",
"g  c #ACA222",
"h  c #A7A921",
"j  c #ABAF23",
"k  c #B3A723",
"l  c #B1AE23",
"z  c #B9AD24",
"x  c #ACB023",
"c  c #B3B224",
"v  c #BBB125",
"b  c #BEBD26",
"n  c #C3A426",
"m  c #C5AD27",
"M  c #C8A927",
"N  c #C2B226",
"B  c #C7BE27",
"V  c #CDB428",
"C  c #CEBD28",
"Z  c #D2B029",
"A  c #D5B52A",
"S  c #D6B52A",
"D  c #D7B52B",
"F  c #D7B62A",
"G  c #D5B52A",
"H  c #D9B62B",
"J  c #D8B72B",
"K  c #DAB62B",
"L  c #DBB62B",
"P  c #DBB72B",
"I  c #DCB72B",
"U  c #DBB62C",
"Y  c #DBB72C",
"T  c #DCB62C",
"R  c #DCB72C",
"E  c #DCB72C",
"W  c #D1BF29",
"Q  c #D7BE2A",
"!  c #D0BE29",
"~  c #DBBB2B",
"^  c #C9C728",
"/  c #D4C02A",
"(  c #D1C629",
")  c #DBC22B",
"_  c #DDC12B",
"`  c #DEC02B",
"'  c #DDC22B",
"]  c #DAC62B",
"[  c #DAC72B",
"{  c #DFC02C",
"}  c #DCC32B",
"|  c #D4C829",
" . c #D5CB2A",
".. c #D8CC2A",
"X. c #D8CC2B",
"o. c #DECD2B",
"O. c #DBCE2B",
"+. c #DCD62B",
"@. c #E2C42C",
"#. c #E3C72C",
"$. c #E1C32C",
"%. c #E3C82C",
"&. c #E6CF2D",
"*. c #E7CF2D",
"=. c #E5CE2D",
"-. c #E8CF2D",
";. c #E1D42C",
":. c #E4D42D",
">. c #E8D02D",
",. c #E9D02E",
"<. c #EAD22E",
"1. c #EAD62E",
"2. c #E9D42E",
"3. c #E2D82C",
"4. c #E3D82C",
"5. c #E3D92C",
"6. c #E4D82D",
"7. c #E4D92D",
"8. c #E6DA2D",
"9. c #E6DC2D",
"0. c #E6DC2D",
"q. c #E8D82D",
"w. c #EBDA2E",
"e. c #E8DE2D",
"r. c #EDDC2E",
"t. c #EDDD2E",
"y. c #EDDE2E",
"u. c #EEDE2F",
"i. c #EBDB2E",
"p. c #ECE02E",
"a. c #EDE02E",
"s. c #EDE12E",
"d. c #EDE02F",
"f. c #ECE22E",
"g. c #EFE42F",
"h. c #EDE32F",
"j. c #F0E42F",
"k. c #F0E62F",
"l. c #F0E62F",
"z. c #F1E730",
"x. c #F2E830",
/* pixels */
"                                                                                                                                                                ",
"                                                                                                                                                                ",
"                                                                                                                                                                ",
"                                                                                                                                                                ",
"                                                                                                                                                                ",
"                                                              R R R R R R R R R                                                                                 ",
"                                                            R R R R R R R R R R R                                                                               ",
"                                                            R R R Y R R R Y R R R R                                                                             ",
"                                                            R R Y R Y V D Y Y R R R R D                                                                         ",
"                                                                      j V D D Y R Y Y V j                                                                       ",
"                                                                    j j j l v Y Y R R V j j                                                                     ",
"                                                                j j j j j j j v Y &.w.X.j j j                                                                   ",
"                                                              j j x x j j j j h i Q y.6.N j j j j                                                               ",
"                                                            j x j j j j x j h y 3 i ] y.` v j j x j                                                             ",
"                                                          j j j j j j f h h y 2 2 2 z g.a.` v j j j                                                             ",
"                                                          x j j j j h 6 3 3 2 2 2 2 i %.g.p.b j j x j                                                           ",
"                                                          x j j x y 6 3 2 2 2 2 2 2 4 i %.s.p w x h j                                                           ",
"                                                        j j j j y 9 2 2 2 2 2 2 2 2 2 4 s 9.t 6 y j x j                                                         ",
"                                                      j j j j f 9 2 2 2 2 3 3 2 2 < 2 2 7 5.z 7 6 j j j j                                                       ",
"                                                      j j j h 6 2 2 2 2 2 2 < < < , , < 6 ;.l.k 6 j j x j                                                       ",
"                                              R       j j h 6 2 2 3 3 < 2 2 < , , > > > 1 Z y.z 6 h j x j                                                       ",
"                                                    j j j h 3 i n t 3 2 2 , > > > > > > > 5 [ v 2 9 h x j x                                                     ",
"                                                    j j l m s Q <.V 2 2 < , > > > > > $ $ & / z : 3 h x j j                                                     ",
"                                                    j j c J #.y.5.z 3 2 > > > > > * # + + @ C v : 3 e h j j   Y                                                 ",
"                                                  j j j v $.y.e.k 2 3 < , > > > > # + + O # N k 2 2 2 e j j   R                                                 ",
"                                                  j j N ` a.a.p 3 2 < > > > > > # + + + + # 2 4 2 2 2 3 w j   R R                                               ",
"                                                j j j N @.e.t 4 2 2 2 , > > > > + + + # + + % % = 2 2 2 q x   R R                                               ",
"                                                j j v W 1.5.7 2 2 < , > > > > * # + + # + + + + % 2 2 9 y j   R Y                                               ",
"                                                j j V &.j.o.6 2 2 < > > > > > & + + + O O o O o @ 2 2 e j j   I R                                               ",
"                                                j j V &.1.M 4 2 2 < > > > > * + + + + o X X . . O 2 2 e j j j A R                                               ",
"                                                j j V >.| 4 2 2 2 < > > > > * + + + o X . . . . O 2 2 3 w j l A R                                               ",
"                                              j j j ..>.m 2 2 2 < , > > > > * + + + o . X X . . O 2 2 2 q j c A R                                               ",
"                                              j x v 7.! 0 2 2 2 , > > > > > * + + o X . X . . . @ 2 2 2 q j l A I                                               ",
"                                                c ) u.z 2 2 2 2 , > > > > > $ + % X X . . X X     2 2 2 q j c A R                                               ",
"                                                v e.z.v : 2 3 2 , > > > > $ + + + X . X X X         2 2 q j z J R                                               ",
"                                                Q d.z.z 2 2 3 2 , > > > > $ + + + X . . .           2 2 q c A J R                                               ",
"                                                i.h.z 7 2 2 2 2 , > > > > $ + + + X . X X           2 2 q v J J J                                               ",
"                                              z.z.=.0 : 2 2 3 2 , > > > > $ + + + o . X .           2 2 9 b =.>.$.                                              ",
"                                              z.d.C 8 : 2 2 2 2 , > > > > $ + + + X . X X           2 2 q b l.l.                                                ",
"                                              z.0.c 9 : 2 2 2 2 , > > > > $ + # + X . . X           2 2 q b l.l.                                                ",
"                                              z.e.c 6 : 3 : 2 2 , > > > > $ + + + X X X .         2 2 2 q b g.z.                                                ",
"                                              z.e.c 6 3 : 3 2 2 , > > > > & + + + X . X X         2 2 2 q b g.z.                                                ",
"                                            z.0.^ x 6 2 3 : 3 2 , > > , > $ + + + X . X X         3 2 2 p +.k.z.                                                ",
"                                          z.z.+.x j 6 2 2 3 : 3 , > > > > $ + + + o X . X         2 2 : z x.k.z.                                                ",
"                                          z.z.+.x j 6 2 2 2 2 2 , > , > > $ + + + + X . . .       2 2 2 z z.z.z.                                                ",
"                                            x.+.j j 6 2 2 2 3 2 , > > > > $ + + + # o . X X . . O 2 2 : z k.k.                                                  ",
"                                            x.+.x j 6 2 2 2 2 2 , > > > > $ + + + + o . X X . . O 2 2 2 6 z k.                                                  ",
"                                          z.x.+.x j 6 2 2 3 2 3 , > > > > $ + # + + o . . X . . O : 3 2 2 u a.z.                                                ",
"                                          z.z.+.j j 7 2 2 2 2 2 , > > > > & + + + + o X . . . . O : 2 2 2 w j.z.                                                ",
"                                          z.x.+.j j 9 2 2 2 2 2 , > > > > $ + + + + + o X X X . O 2 2 2 4 p j.                                                  ",
"                                          z.z.+.j j j 9 2 2 2 2 , > > > > $ + + + + + + + + + + % 2 2 2 k e.k.                                                  ",
"                                          z.z.+.j j x q 2 2 2 2 , > > > > * & + + + + + + + + + % : 3 : z x.z.                                                  ",
"                                          x.l.9.x j j q 4 i 2 < 2 , > > > > * + + + + + + + + % ; : 3 r W k.z.                                                  ",
"                                          l.l.z.  j j q 8 Z a u 7 < > > > > * + + @ + # + + + - 2 3 2 m w.a.w.                                                  ",
"                                            z.x.  j j q 8 J w.z.z < > > > > * # + + + + + + + - 2 3 6 | x.w.I                                                   ",
"                                            z.z.    j q 8 Y ~ r.z 2 2 > > > > * + + # + + + + - : 6 ..a.z.g.                                                    ",
"                                            z.z.    j f k J I w.z ; 2 > > > > > * + + + + + - : 2 6 6.x.g.z.                                                    ",
"                                            z.z.    j j z J I w.X.p 2 > > > > > > * & $ + + ; 2 2 4 ] a.l.z.                                                    ",
"                                            z.z.    j j z Y I w.x.( 2 , > > > > > > > * # + = : 4 a ~ 1.a.x.                                                    ",
"                                            z.z.    j j v A J 2.z.( 2 2 , > > > > > > > * % + ; u 3.9.) A                                                       ",
"                                            z.z.    x j j v G P 2.( 2 2 2 , > > > > > > > 2 : 9 j c c x l                                                       ",
"                                                      j j l G N  .2.d 4 2 , > > > > , < < 2 2 q j j j j j                                                       ",
"                                                        j j N j B &.] 4 2 < , > , , 2 : 2 2 6 y x j x j j                                                       ",
"                                                          j j j N @.w.p 4 2 < , 2 2 2 3 6 6 f x j j x j                                                         ",
"                                                          x x j v { d.d.a 2 2 2 2 2 2 6 j j j j j j                                                             ",
"                                                            x j j v $.u.Q i 2 2 2 2 2 6 j j j j j j                                                             ",
"                                                            x x j v R $.2.~ i ; 2 q y f j j j j j             R                                                 ",
"                                                              x j l N N [ 2.W y q h j j x j j j j           R R                                                 ",
"                                                                j j j j N [ o.v z j j j j j j l v           R R                                                 ",
"                                                                  j j j j N U Y Y v j j j j j N R Y                                                             ",
"                                                                    j j j N R R Y Y v j l Z A Y I R R                                                           ",
"                                                                    j j j N R R R R D V V Y R R Y R                                                             ",
"                                                                      x     R R R Y R R R R Y R R                                                               ",
"                                                                              R R R R R R R R R R                                                               ",
"                                                                                R R R R R R R                                                                   ",
"                                                                                                                                                                ",
"                                                                                                                                                                ",
"                                                                                                                                                                ",
"                                                                                                                                                                ",
"                                                                                                                                                                "
};
