/* XPM */
static char *result[] = {
/* columns rows colors chars-per-pixel */
"80 80 168 2 ",
"   c #111F2B",
".  c #14242E",
"X  c #15282F",
"o  c #162C30",
"O  c #182F32",
"+  c #193433",
"@  c #1C3934",
"#  c #203E31",
"$  c #1F4033",
"%  c #214432",
"&  c #254B33",
"*  c #294E32",
"=  c #275134",
"-  c #2A5433",
";  c #2D5B34",
":  c #305F34",
">  c #2F6135",
",  c #326435",
"<  c #356B35",
"1  c #396D35",
"2  c #3B7335",
"3  c #3E7835",
"4  c #417636",
"5  c #447B36",
"6  c #497F37",
"7  c #43753A",
"8  c #48773A",
"9  c #46793C",
"0  c #4A7D3B",
"q  c #507F3E",
"w  c #4C7C41",
"e  c #478136",
"r  c #4A8337",
"t  c #4D8937",
"y  c #4E8339",
"u  c #508B37",
"i  c #51853A",
"p  c #558B39",
"a  c #5A8E3B",
"s  c #579238",
"d  c #5C943A",
"f  c #5F9A3A",
"g  c #63953D",
"h  c #649B3B",
"j  c #6A9E3D",
"k  c #67A03B",
"l  c #6CA33C",
"z  c #72A63E",
"x  c #75A93E",
"c  c #7AAD3F",
"v  c #7FB13F",
"b  c #528342",
"n  c #598744",
"m  c #5E8C42",
"M  c #639342",
"N  c #6E9C40",
"B  c #6E974F",
"V  c #719F43",
"C  c #6F9656",
"Z  c #6DA242",
"A  c #73A641",
"S  c #76A941",
"D  c #7BAD42",
"F  c #7EAE4D",
"G  c #7FB141",
"H  c #75A552",
"J  c #7CA456",
"K  c #77A855",
"L  c #7CAC53",
"P  c #7CA45C",
"I  c #779A66",
"U  c #799E63",
"Y  c #7CA264",
"T  c #7EA06D",
"R  c #81B23F",
"E  c #84B443",
"W  c #88B744",
"Q  c #8BB944",
"!  c #83B24B",
"~  c #89B64B",
"^  c #8DBA49",
"/  c #80AF54",
"(  c #81AE5A",
")  c #8BAF5F",
"_  c #83B154",
"`  c #8AB653",
"'  c #8EB855",
"]  c #84B15B",
"[  c #8AB55C",
"{  c #8DB85A",
"}  c #92BA5C",
"|  c #85AB63",
" . c #84A56D",
".. c #86AA68",
"X. c #8DB663",
"o. c #8FB56B",
"O. c #92BA63",
"+. c #94BA6D",
"@. c #84A474",
"#. c #8DAC77",
"$. c #8BB273",
"%. c #98BC73",
"&. c #92B67D",
"*. c #9EBF7C",
"=. c #9EC16C",
"-. c #9EC071",
";. c #A1C375",
":. c #A5C47B",
">. c #A8C67E",
",. c #92B680",
"<. c #99B386",
"1. c #9CBC83",
"2. c #9FBE8B",
"3. c #A0BF87",
"4. c #A1BF8B",
"5. c #AABF9B",
"6. c #ACBFA0",
"7. c #A3C284",
"8. c #AAC585",
"9. c #ACC884",
"0. c #A3C18A",
"q. c #AAC58E",
"w. c #AFC98B",
"e. c #B3CC8E",
"r. c #A5C292",
"t. c #ACC494",
"y. c #ABC59A",
"u. c #B4CB94",
"i. c #B9CE96",
"p. c #B2C59D",
"a. c #B3CB9B",
"s. c #BCD19C",
"d. c #B5C6A5",
"f. c #B5CAA2",
"g. c #BBCFA4",
"h. c #BACCAA",
"j. c #BCD0A5",
"k. c #B6CAB0",
"l. c #BCCEB6",
"z. c #BFCFBA",
"x. c #C3D4A4",
"c. c #C5D5AF",
"v. c #C0CEB1",
"b. c #C3CFBD",
"n. c #C4D3B4",
"m. c #C9D7B5",
"M. c #C4D2BC",
"N. c #C9D6BC",
"B. c #CCD9BC",
"V. c #D0DBBC",
"C. c #C5D3C1",
"Z. c #C9D5C4",
"A. c #CAD6C8",
"S. c #D2DCC4",
"D. c #D4DDCA",
"F. c #D8DFCC",
"G. c #D5DCD2",
"H. c #D9DED4",
"J. c #DADFDA",
"K. c #DAE0CF",
"L. c #DCE1D3",
"P. c #DEE1DB",
"I. c #E1E4DD",
"U. c #DFE2E0",
"Y. c #E7E7E7",
"T. c #E7E7E8",
"R. c #E8E7E9",
"E. c #E9E8EA",
/* pixels */
". .       . . .     . . . . . .   . X X     . . X .   X o . . . . .   . . o . . . X X   . X . . . . . X . . X X . . . X .     . X . . . . . . . X . . . .       ",
"          .   . . . . . . . X X . . . . . . . X X X . X . . . . . . . . . X . . . X X . . . . . . . X X . . X X . . . . . . . X X X . . . . . . X . . .   .     ",
"    .     . . . . . o . . . X X . . . . . X X X o . . X o . . . . . . . . . X . . . X . . . . . . . . X X . . X . . . . . . . . . . . . . O X . . . . .         ",
".     . . . . . . . X .   . . . . X . . . . .   . . . . . . . . . . . . . . . . . . . X X .   . X . . . .   . . . . X . . . . . . . . . . . . . . . . . . . .   ",
". . . . . X . . . . . . . . . . X X X . . . . . . . . . . . X o . . . . . . . . . . . X X X . . . . . . . . . . X X X . . . . . o . . X . . . . . . O . . . .   ",
"X X X . . . X . . . . o X X . . X X . . . . . X o O X . . X o . . . . . X o o X . X . X X . . . . X X o o X . X X X X X . . . X O O O O o . . . . . . . . o . . ",
"X X X . . . . X . . o o o o o o X X o . X O O O O o o o o o o o . o O O O O O O o o o o o X X o o O O O o o o o X X o X X O X o O O O O O o . . . . . . . . . . ",
". . . . . . X . . o O + O + O O + O O o + + + + + + + O O O O O O + + + + O + + O + O O O o O O + + + + + O + O O O o O O + + + O O O O O O o o X . . . . . . . ",
".   . X X . . . o O + + + + + + O + + + + + + + + + @ + + + O + + + + + @ + @ @ + + + + O + + + @ + + + + @ + + + O O + + + @ + + + @ + + + O O . . . X . . . . ",
"    . X o . . X O + @ + + @ @ @ @ @ + @ @ + + @ @ @ @ @ @ @ + + @ @ + @ + @ @ @ @ @ @ @ + @ @ @ + + @ @ @ @ @ @ @ @ @ @ @ + + @ + @ @ @ + @ + O . . . X . . . . ",
". . . X X . . X + @ @ @ + @ @ @ @ @ @ @ @ + @ @ @ + @ @ @ $ @ @ $ @ + @ @ @ @ @ + @ @ @ @ @ @ @ + @ @ @ + @ @ @ @ @ @ @ @ + @ @ @ @ + @ @ @ @ + X . . . . . . . ",
".         . X o + + @ + + + + @ @ @ @ @ + + @ @ + + O + + @ + + + + + + @ @ + + + @ @ @ @ @ + + + @ @ + + + + @ @ @ @ + + + @ @ @ + + + + @ + + X . . . . . . . ",
"          . X O + @ @ + + O + + + + + O + O + @ + + O O + + + + + + + + + @ + + O + + + + + O + + + @ + + O O + + + + + + + + @ @ + + + @ @ + O o X . . . . . . ",
". . . . . X o O + @ @ + @ @ + O O + O + + + + O + + O + + + + + + + @ @ + + + + + + + + + + + @ @ + + + @ + + O + O + + + + + + + + @ + @ @ @ + O o X . . . . . ",
". . X X X o O O + + @ @ @ @ @ O O + + + + + + + @ + O + + + + + + + @ + O O + + O O + + + + + @ + + + + + + + + + + + + + + + + + + @ @ @ @ + + O O O . . o . . ",
". . X X X o O O + + @ @ @ @ + + + @ @ + + + + + @ + + O + + + + + + + + + O O + + O O + + + + @ + + O + + + @ @ + + + @ + + + + + + @ @ @ + O O O O O X . . . . ",
". . . . . . o O + @ @ @ @ + + O @ @ @ @ + O + @ + + + + + @ @ @ + @ + + + @ + + + + + + + + + + + @ + + @ @ @ $ @ @ $ @ + @ + + @ @ @ @ @ @ @ + O O . . . . . . ",
". . . . . . o O + @ + @ @ + + + + + @ @ @ @ $ & $ $ % & & % $ % % $ $ $ $ $ $ % = * % $ % * % $ @ @ @ @ @ = $ $ $ $ $ $ @ @ + + + + @ @ @ @ @ + + O . . . . . . ",
"  . X . . X o O + + + @ + + + + + + @ = = & > , ; ; > , > - - ; < > = = & = - > < , ; = ; < , - = = = = ; > > > ; = = = - $ @ + + + + + + + + + O o . . . . . . ",
"X .   .   . X o O + @ + + + + + + @ $ = ; ; > < , < 2 1 < > > < 3 < > ; = = > < 2 < > > , < 1 < > = = = > 2 < < < < > < < , $ + + O + + @ @ + + O . . . . . . . ",
". . . . X . X o O + @ @ @ + + + @ $ = > , , < < , 1 2 1 < 2 , , < < > > > > < < < 2 < < , < < < > > > > < < < , 2 2 < 2 2 < $ @ O O + @ @ @ + O o . . . . . . X ",
". . . X X X o o O + + @ @ + + + + $ ; 2 2 < 2 2 1 , < , 1 3 < : > > > < < 2 < > , < 3 2 , : ; > > , 3 < > > > < , < < < < ; % + + + + @ @ + O O o o . o . . . . ",
". . . X X X X o O + @ @ @ @ @ + @ $ ; > < < 9 b 0 6 5 1 < 3 4 4 < > > < 2 < 1 1 2 2 2 3 7 < : : > > 3 < 2 9 w w 3 1 > 1 1 > & + @ @ @ @ @ @ + O o o . o X . . . ",
". . . . . . o O O @ @ @ @ + + + @ $ = > < < r M g g M b w q m M y 9 9 9 w 0 b n m w w d M b 0 8 w 9 w w w n f f a 9 , < 2 < & @ @ @ @ @ @ @ + O o o X . . . . . ",
". X o . . X o O O + @ @ + + + + @ $ = < 2 3 a N m C | @.T J X.o.P P Y P P U Y ..#. .U ) } ..( P  .U J U I B M M z g 4 2 < ; % @ + + + + @ @ + O O o . . . o o o ",
"X X o .   X o o + O @ + + + + + @ $ ; 2 5 6 d V C #.p.h.d.8.u.g.w.t.f.u.t.t.f.h.c.d.5.e.i.t.e.u.p.u.4.p.6.<...H A g t 4 < - % @ + + + + @ @ @ O o . . . . o . . ",
". . . . . . o O + @ @ + + O + + @ * < e t u d Z ..5.D.J.L.V.F.L.S.K.L.K.S.K.L.I.I.I.S.D.F.F.F.F.L.F.B.F.J.b.4.| Z f p r 4 , & + + O + + + @ + O o o . . . . . . ",
". . o o X o O O + @ @ @ + + O + % ; 2 p h j k l ( 4.M.I.Y.I.I.Y.I.I.Y.I.I.I.Y.Y.R.Y.I.Y.I.I.I.I.Y.Y.I.Y.J.b.1./ Z j k h i 1 ; $ + O + + @ @ @ O O o o o . o . . ",
". . . o . o O O + + + @ + + O + $ ; 4 d j l l x / 1.M.J.R.R.T.Y.R.R.Y.Y.R.R.Y.Y.Y.R.R.Y.Y.R.R.Y.Y.Y.Y.R.J.v.*.F x l l j a 4 - # + + + @ + @ @ + O O o o o o . . ",
". . . . . X o O + @ @ @ @ + O O O * 1 t d j z D ] q.S.I.Y.Y.Y.Y.Y.Y.Y.Y.R.R.Y.R.Y.Y.Y.Y.Y.Y.Y.Y.Y.Y.Y.Y.I.B.0.) v l h d r 1 * O + + @ @ @ @ + + O o . . . . . . ",
". . . . . . o O + + + @ @ @ O O # * < 6 f z v W ` 8.S.I.R.Y.Y.Y.Y.Y.Y.Y.Y.Y.Y.Y.Y.Y.Y.Y.Y.Y.Y.Y.Y.Y.Y.R.P.B.:.~ R R z d 6 < * + + + + @ @ + + + O o . . . . .   ",
". . . . . . o O + @ + @ @ @ + + # - < 6 d x R R W ;.m.P.R.Y.Y.Y.Y.Y.Y.Y.Y.R.Y.Y.R.Y.Y.Y.R.Y.Y.Y.Y.Y.Y.R.P.c.-.E R R x s 4 1 * # @ + + + + @ + + O o . . . . . . ",
". . . .   . X o O + @ @ + + + + # ; 2 5 u j x x x o.j.L.R.Y.Y.Y.Y.Y.Y.Y.Y.R.Y.Y.Y.Y.Y.Y.Y.Y.R.R.Y.Y.Y.Y.K.a.X.z x x h t 5 2 - # + + + + @ @ + + O . . . . . . . ",
". . . . . . X o O + @ + @ O + + # * 1 7 i k l x l X.s.L.E.Y.Y.Y.Y.Y.R.Y.Y.Y.Y.Y.E.Y.Y.Y.E.Y.E.Y.Y.Y.Y.E.K.i.{ z z z N y 2 < * @ + + + @ @ @ + O o o . . . . . . ",
"o .   . o . X o O + @ @ @ + O + O $ ; 1 p S D x E =.x.L.R.Y.Y.Y.Y.R.Y.Y.Y.Y.Y.R.Y.Y.Y.Y.Y.Y.Y.Y.Y.Y.Y.E.K.s.=.G x x x i 1 - % + @ @ @ @ + @ + O o . . o . . . o ",
". . . . o o o o O + @ @ @ + + + + & , 5 a A S D } e.S.I.Y.Y.Y.Y.Y.Y.Y.Y.Y.Y.Y.Y.Y.Y.Y.Y.Y.Y.Y.Y.R.Y.Y.Y.I.B.8.' G x l s 4 : % + + @ @ @ @ + + O o o . o . . . . ",
". . . . X X o o O + @ @ @ @ + @ # * 1 t h x c E } i.K.Y.Y.Y.Y.Y.Y.Y.E.Y.Y.Y.Y.Y.Y.Y.Y.E.Y.Y.Y.Y.Y.Y.Y.T.Y.K.u.} R c z f r 1 * # O O @ @ @ @ + O o o . o . . . . ",
". . o . . X o o O + @ $ @ @ + @ % : 2 i h c c D ` 9.S.P.R.Y.Y.Y.Y.Y.Y.Y.Y.Y.Y.Y.Y.Y.Y.Y.E.Y.Y.Y.Y.Y.Y.E.P.m.8.~ c c c h i 2 ; # + O + @ @ @ @ O o o . . . . . . ",
". o o .   . X O O + @ @ @ + + + # - 2 u j l x S ! :.B.P.E.Y.Y.Y.Y.Y.Y.Y.Y.Y.Y.Y.Y.Y.Y.Y.Y.Y.Y.Y.Y.Y.Y.Y.P.m.-.! x z l h i 1 * # + + + @ @ @ + O o o . . . o o o ",
". . X . . . o O + @ @ + + @ + O # * 1 p f h l S L 7.B.P.Y.Y.Y.Y.Y.Y.Y.Y.Y.Y.Y.Y.E.Y.Y.Y.Y.Y.E.Y.Y.Y.Y.Y.P.m.-.L x k h h i < & O + + @ + + @ + O O o . . . o . . ",
". . . . o o o O + @ @ + + + + + # ; 5 p h k z v { 7.M.P.T.T.Y.Y.E.Y.Y.Y.Y.Y.E.Y.Y.Y.Y.Y.Y.Y.Y.Y.Y.Y.Y.Y.P.v.3.` S z k h p 3 ; # + O + + + @ @ + O o o . . X . . ",
". . o . . o o + + @ @ @ + + + O # ; 4 d j k j z _ 0.Z.P.T.T.R.Y.Y.Y.Y.Y.Y.Y.Y.Y.Y.Y.E.Y.Y.Y.Y.Y.Y.Y.Y.R.P.M.3./ z l k h s 3 - # + O + @ @ @ @ O O o o . . X .   ",
". o . o . o o + + + + @ @ + + O O * 4 s j j k z L 2.Z.I.T.Y.Y.Y.Y.Y.Y.Y.Y.Y.E.Y.Y.Y.Y.Y.Y.E.Y.Y.R.Y.Y.R.I.N.1.H l j j k a 1 & + O + + @ @ + + + O O o X X X . . ",
". . . . . . o o + @ @ @ @ + + O + * 1 6 d z c R ' >.B.I.T.T.Y.Y.Y.Y.Y.E.Y.Y.Y.Y.Y.Y.Y.Y.Y.Y.Y.Y.Y.Y.R.R.L.m.:.~ W c l d 6 < * + @ + @ @ @ @ @ + O o . X . . . . ",
". . . . . . o + + @ @ @ + O + O # - 1 5 s z R R ~ :.m.P.R.Y.Y.Y.Y.Y.E.Y.Y.Y.Y.Y.Y.E.Y.Y.Y.Y.Y.Y.Y.Y.Y.R.I.c.-.W R R z p 4 < * # @ + + @ + @ @ @ O X . . . . . . ",
"  . . . . . o o + + + + + # + + % ; 2 6 s z c c S %.n.L.R.Y.Y.Y.Y.Y.Y.Y.Y.Y.Y.Y.R.R.Y.Y.Y.Y.E.Y.Y.Y.Y.E.H.h.+.x c c j p 6 1 ; # + + + + @ + + O O X . . . . . . ",
". . . . . . . O + + @ @ # + + + # * 1 4 i j z c z [ s.L.R.T.Y.Y.E.Y.Y.Y.Y.Y.E.Y.R.Y.Y.Y.Y.Y.Y.Y.Y.Y.Y.E.F.i.[ z x x j i 1 < * # @ + + + @ @ + O o o . . . . . . ",
"X . . X . . . o X + @ @ # O o + + % , 1 i j z z x O.s.H.R.Y.Y.Y.Y.Y.Y.Y.Y.Y.Y.Y.Y.Y.Y.Y.Y.Y.Y.Y.Y.Y.Y.R.F.e.} x x x j 6 1 : * o + @ @ @ @ @ O O o . . . . . . . ",
"X . . X X X X o O + @ @ @ O O O O % : 4 a x z x ~ 9.B.I.T.Y.Y.Y.Y.Y.Y.Y.Y.Y.T.T.Y.Y.R.Y.Y.T.Y.Y.R.Y.Y.R.L.m.:.~ x x A a 2 ; % + + @ @ @ + + O O O o X X X . . . ",
".     X X X o o O + @ @ @ + + @ # * , 6 g v c E } e.F.I.T.R.Y.Y.Y.Y.Y.Y.Y.Y.Y.T.Y.Y.Y.Y.Y.Y.Y.T.Y.Y.Y.R.Y.S.w.' G c S d 6 , * @ O + @ @ @ @ + O O o X X X . . . ",
". . . . . X o O O + @ @ @ @ @ @ # ; 4 u h c R R ' w.D.Y.R.Y.Y.T.Y.R.Y.Y.Y.Y.T.T.R.Y.Y.Y.Y.R.T.Y.Y.Y.Y.R.I.S.9.` G G c f t 2 ; # O + + @ @ @ @ + O X . . . . . . ",
"X o o .   X o O O + @ @ @ @ O @ # - < i h z l x ! :.m.J.R.R.R.T.Y.R.Y.R.R.R.T.T.R.Y.Y.R.Y.R.T.T.Y.R.R.R.P.m.;.F x z z h i < * + + + @ @ @ @ + O o o . . . X X X ",
"X X o . . . o O + + @ + @ @ @ + # & : r g l l l S %.m.P.Y.J.P.I.J.P.Y.P.P.J.J.J.P.Y.J.J.J.J.J.U.Y.J.H.U.G.f.%.S k k k h 6 < * + + + + + @ @ @ O O o X . . o X X ",
". X o . . . o O + @ @ + + @ @ + O % : 4 u j x S H ,.M.H.G.b.C.A.l.C.G.A.C.C.z.z.A.D.A.z.l.M.M.Z.G.Z.k.C.C.y.$.H c k h s r 1 * + @ + @ + + @ @ + O X . . . X . . ",
". . o . . o o O + + @ + + @ @ + O & < 2 t g z S K $.r.g.y.,.2.r.1.4.y.4.2.2.3.3.q.r.r.2.1.0.7.0.y.4.&.q.q.o.] F c l s t 5 : * + @ + + + @ @ @ O O O o . X o . . ",
". . o . X o O O + + @ @ @ @ + + + & < 2 t h z D / [ o.+.X.F ] O._ { O.( L [ [ [ } X.( ] ] [ { { X.( L O.X.F G W R c f t 2 : % + @ + + @ @ + + + O O o X . o . . ",
". . . . . . O O + @ @ @ @ @ @ + @ % ; 2 t k D W ^ W ~ ~ W W Q ~ W W ^ ^ W ^ ^ ^ W W W W W ~ Q ^ ^ ^ W ^ ~ G E W R c z p 2 - % + + + @ @ @ @ + + O O . . . . . . ",
". . . . . . X O + + + @ @ @ @ + + % > 4 s z S E W R R R v W R E E W Q Q R R R Q W E E E R R W Q Q R W R R D G D z z z p 3 , & + + + + @ @ + @ + O X . . . . . . ",
". . X . . . o O + + + + + @ @ @ + & , 6 f x l k x c l A x x x x c G W W E D Q R E x A A x x c W Q W D E G l k h p d h u 4 < & + + + O + + + @ + O X . . . . . . ",
". . . . . . . O + + @ @ + + + + + & < 2 r a u u d d p M h a d M l z k x x z l z g M h d g z l k z z j A k p r e 3 4 6 4 < ; % O + + + + @ @ + O O X . . . . . . ",
"o . . . . . X o O + @ @ @ + + + + % > 1 3 3 3 3 5 9 4 i b 5 e p d p t p a a i i 0 y i 9 r d s t p a i a t 3 < < < < < 2 , * $ + + + + @ @ @ + o X X . . . . . X ",
". . . . X X X O O + @ @ + + @ @ + @ = < 2 < < , , , , 1 2 < 2 3 5 2 < 2 7 4 4 1 2 2 1 1 2 5 2 < 2 2 1 4 < , > < < < < 3 1 - # + @ @ + @ + + + O o X X X . . . . ",
". . . . X X X O O + @ @ @ @ @ @ + $ - < 2 < < < < < < 1 < 2 2 2 < 2 < 1 1 2 2 1 2 2 < 2 2 2 < 2 < 1 2 2 < > < 2 < > > < < * # + + @ @ @ @ @ + O o X X X . . . . ",
". . . X X . o O O + @ @ @ + @ + + $ - < < ; > 2 < 1 < , < < 2 2 < 2 2 > , 2 2 < < < , 2 2 < < 2 < , 1 2 < > < 2 , ; & ; - % # + O + @ @ @ @ + O o X X X . . . . ",
". X X . . . o O + + @ @ @ + + + + + @ = ; = = > 7 , ; ; = > > > < < < ; = > > > ; > = > > , < 2 ; = ; , > = ; ; & $ $ $ $ @ @ @ + + O @ @ @ + O o o X . . X X X ",
". o . . . . o O O + @ + + + + + + O @ @ @ @ $ = > = $ $ % % % % = = = & $ & = $ $ $ $ $ $ = ; ; $ $ $ = = $ % % @ + @ + + + + + + O + + @ @ + O O X . . . X X X ",
". . X . . . . O + + + + + + + + + O O + + + + @ @ @ + + @ @ O + @ @ @ @ @ @ @ @ + + $ @ O @ $ @ $ @ @ @ @ + O + + O O O + o + + + + O + + @ + O o X . . . X . . ",
". . . .   . X o O + + + + O + + @ @ O + + + + @ @ + O + + @ + + @ O @ + @ @ + + O + @ @ + + + + @ @ @ + + O O O + + + + + + + @ + + + + + @ + O o .   . . . . . ",
". .   . . . . X O O + + + + @ @ @ @ + + @ + + @ + + O + + @ @ @ @ + + @ @ @ @ O + @ @ @ @ @ + + + @ @ @ + + + @ @ @ @ @ + + + @ @ + + + + + + O X . . . . . . . ",
"  . . . . . . X o O O + + + @ @ @ @ @ @ @ + @ @ @ + @ @ @ @ @ @ @ @ + @ @ @ @ @ + @ @ @ @ @ @ @ + @ @ + @ + @ @ @ @ @ @ @ + @ @ @ @ @ + O O O o X . . . X . X X ",
"  . . X o . . . O O O + + @ + @ @ + + + @ + @ @ @ @ @ + @ @ @ + @ @ O @ @ O @ @ @ @ @ @ @ @ @ @ + @ @ @ + @ + @ @ @ + @ @ @ @ @ + @ @ + O O o o . . . o X . . . ",
".   . o . . . . . o O + + + + O + O + + + + + + + + @ + + + + O + + + @ @ O @ @ + + + O O O O + + + + + @ @ + + + O O + + + + + + + @ + + O o X . . . . . .     ",
". . . . . . . . o o o O O O O O O O o o O O O + O + O O O O O O o O O + O O O O O O O O O O O O + + + + + + o + o o o o + + + + + + + O O O o . X .   . . .   . ",
". . . . . . o . . o o o O O o o o o X X o O O O O O X O O X X O X X o O O O O o O O X O X X X X o O o o O o o o o o o o . o o o O O O O O o . . X . . . . . .   ",
". o o . . . . . . . . o o . . . X X X . . X . X o o . . . X X X . . . . o o X X . . . X X X . . . o o o o . . . . . o   . . . o o o o o o . .   . . . X X X .   ",
". . . . . o . . . . . . . . . . X X X . . . . . X . . . . . X X . . . . X X X . . . . X X X . . . .   o . . . . . o o . . . . . X o . . X . . . . . o X . . . . ",
".       . . .   . . . . . . . . X X X . . X . . . X . . . . X O . . . . . X . . . . . X X . . . . . . . o .   . o . o .   o . . . .   . . o X . . . . . . .     ",
"    .   . .     . . . . . . o . . . . . . X X X X . X X X . . . .   X X X X . . X X X . . . . . o o . . o . o o . . . . . . . o o . . . . o X . . . . . .     . ",
"    . .   .   . . . . . . . o o . . . . . . . . . . . X X . . X . . . . X . . . X X X . . . . . . o . . . . . o . . o . . . o o . . . . . X . X o .   .         ",
".       .   . . . . .   . . o . . . X . .     .   . . X X . . X . . .   . .   . X X . . . . . . .       . . o . . X X                     .   . o . .   . .     "
};
