/* XPM */
static char *result[] = {
/* columns rows colors chars-per-pixel */
"80 80 181 2 ",
"   c #172E31",
".  c #182F31",
"X  c #193332",
"o  c #1C3A33",
"O  c #203E31",
"+  c #1F4033",
"@  c #224432",
"#  c #254B33",
"$  c #284E32",
"%  c #275235",
"&  c #2A5534",
"*  c #2C5C35",
"=  c #305E32",
"-  c #345F38",
";  c #2F6135",
":  c #326535",
">  c #356B35",
",  c #396E36",
"<  c #366438",
"1  c #3D6D38",
"2  c #377035",
"3  c #3B7335",
"4  c #3E7A35",
"5  c #3F7038",
"6  c #416D3A",
"7  c #417637",
"8  c #427C36",
"9  c #427438",
"0  c #48763A",
"q  c #467B38",
"w  c #4A7C39",
"e  c #517E3C",
"r  c #547E45",
"t  c #468235",
"y  c #4A8437",
"u  c #4D8B36",
"i  c #4D8339",
"p  c #4F8938",
"a  c #518F37",
"s  c #53853A",
"d  c #59863D",
"f  c #548C39",
"g  c #5B8D3C",
"h  c #549237",
"j  c #589637",
"k  c #569238",
"l  c #5C943A",
"z  c #5E9939",
"x  c #618E3E",
"c  c #63953D",
"v  c #68963F",
"b  c #649C3B",
"n  c #6A9D3D",
"m  c #67A03B",
"M  c #6CA23D",
"N  c #71A63E",
"B  c #75A93E",
"V  c #79AC3F",
"C  c #7FB03F",
"Z  c #588546",
"A  c #508248",
"S  c #5E8C49",
"D  c #588250",
"F  c #5C8952",
"G  c #639344",
"H  c #669B45",
"J  c #6E9B41",
"K  c #65954B",
"L  c #6A944E",
"P  c #6B9A4B",
"I  c #719E42",
"U  c #709B48",
"Y  c #648D55",
"T  c #669455",
"R  c #719D50",
"E  c #749959",
"W  c #6CA242",
"Q  c #74A441",
"!  c #79A741",
"~  c #76A942",
"^  c #7BAD41",
"/  c #73A14D",
"(  c #7BA74E",
")  c #77A948",
"_  c #7BAC4A",
"`  c #7EB041",
"'  c #7AA656",
"]  c #74A559",
"[  c #7CAA5E",
"{  c #739469",
"}  c #7EAB63",
"|  c #7BA168",
" . c #83B33F",
".. c #81AE44",
"X. c #81AD4C",
"o. c #84B442",
"O. c #89B743",
"+. c #8CBA44",
"@. c #83B249",
"#. c #89B64C",
"$. c #8EBA4B",
"%. c #91BD45",
"&. c #92BD4A",
"*. c #83AE5B",
"=. c #86B353",
"-. c #8BB753",
";. c #8EBA54",
":. c #85B25B",
">. c #88B158",
",. c #91BA55",
"<. c #95BD5B",
"1. c #86B160",
"2. c #8CB663",
"3. c #93B764",
"4. c #95BA64",
"5. c #94B96B",
"6. c #9ABD6B",
"7. c #92AE7B",
"8. c #8BB374",
"9. c #90B770",
"0. c #92B777",
"q. c #9ABC77",
"w. c #95B87A",
"e. c #9DBE7C",
"r. c #9EC16C",
"t. c #A1C36B",
"y. c #A4C47A",
"u. c #8FAB86",
"i. c #96B885",
"p. c #9CBD84",
"a. c #95B78A",
"s. c #9BB488",
"d. c #9CBC8B",
"f. c #9EB490",
"g. c #9EBA91",
"h. c #A4B999",
"j. c #AABBA1",
"k. c #A0C082",
"l. c #ACC985",
"z. c #A5C289",
"x. c #AEC88B",
"c. c #B2CC87",
"v. c #B4CD8C",
"b. c #A5C196",
"n. c #AEC591",
"m. c #A9C399",
"M. c #B6CD92",
"N. c #B9D095",
"B. c #BDD29A",
"V. c #ADC6A2",
"C. c #B5C8AB",
"Z. c #BDD1A4",
"A. c #BFD1A9",
"S. c #B9CCB5",
"D. c #BBCDB4",
"F. c #BED0B6",
"G. c #C0D49F",
"H. c #C2D3A5",
"J. c #C1D1AB",
"K. c #C2CEB7",
"L. c #C4D4B2",
"P. c #CBD9B6",
"I. c #C4D2BC",
"U. c #CAD7BA",
"Y. c #CEDABB",
"T. c #D1DCBD",
"R. c #CAD7C2",
"E. c #CCD6C6",
"W. c #CDD6CB",
"Q. c #CFD9C9",
"!. c #D2DBC2",
"~. c #D9DFCD",
"^. c #D5DDD1",
"/. c #D9DFD4",
"(. c #DAE1CD",
"). c #DBE1D3",
"_. c #DDE1DB",
"`. c #E1E4DD",
"'. c #E6E6E6",
"]. c #E7E7E8",
"[. c #E8E7E8",
/* pixels */
"+.o.o.o.+.%.O.o.o.O.O.o.o.+.%.%.O.o.o.O.+.O.+.%.+.o.o.o.O.O.+.%.%.O. .o.O.+.O.+.%.+.o.o.o.O.+.%.%.+.O.o.o.+.O.O.+.%.+. .` O.O.O.%.%.+.o.o.O.+.O.` O.+.+.o.o.o.O.",
"+.O.o.+.%.%.o.o.O.+.+.o.o.+.%.%.o.o.o.+.+.o.O.+.+.+.o.O.O.O.%.%.+.o.o.O.+.+.O.O.+.+.O.O.O.O.+.%.%.O.o.o.+.+.O.o.+.+.+.O.O.O.O.O.%.%.%.o.o.O.O.O.` O.%.%.+.O.O.O.",
"+.%.%.%.+.+.o.o.o.O.+.O.O.+.%.O.` o.+.+.O.` o.o.%.%.%.O.O.o.+.%.O.o.o.O.+.o.o.` +.%.%.%.O.o.O.+.+.o.` o.O.+.o.` O.+.%.%.%.o.O.O.+.%.O.` C O.O.o.` o.%.%.%.%.%.+.",
"+.%.+.` V ` ` V V V o.V o.+.+.O.^ V ^ ` C V C o.+.%.+.o.^ o.+.+.o.V B ` o.V V V O.%.%.O.o.C O.+.O.o.C V V ` V ^ C O.%.%.O.C ` O.o.` B B C o.C V ` o.+.+.%.%.%.+.",
"o.+.+.V N M B V M b n M V o.^ N V N b b m B V V C O.O.V N o.` V Q N Q n n M N ^ C ` o.^ V B V o.~ N ~ M b n N B V C o.O.` M ` o.B M M V ^ Q M n B ~ V ..%.%.O.o.",
"V o.+.o.N b N ~ b f p b B M g s J v f i l V B b z M ^ M N ~ v f g J M f u z N B z b N M n N N v s x I l i f M V M c b ~ ~ M N B z z B ` ~ l f c v c x V +.O.o.V ",
"o.o.o.o.V z l f i 9 5 f c f 8 1 s i 7 , q b l u t f l s s g i 8 0 e s 9 , f z l y y f s s d f y 7 w s 0 5 5 f b u y y f g s f g y k n N c 7 7 w w d G ~ O.O.o.o.",
"+.O.o.o.B l q 5 1 < : 8 t 4 > > 5 1 : : 5 y t 2 2 3 9 1 6 7 3 3 > 5 5 : : 3 q 8 > , 3 5 1 9 3 2 > , 9 , : > 8 y 4 2 , 3 9 5 7 5 3 w g f w : > , 1 w c Q  .o.o.O.",
"%.%.o.V v w 3 3 4 5 ; > > > 2 3 4 2 2 4 3 3 > : : : > 2 3 2 > > 4 3 > 3 4 3 > > > > > > 2 4 2 > 3 3 3 2 3 3 2 2 > ; > > > 4 3 > ; > , 5 2 > 3 4 , 4 i c V o.+.+.",
"o.O.O...v 0 , 3 4 3 : ; ; > 4 4 2 2 2 4 4 > > > 2 > ; 2 4 4 2 2 4 2 > 3 4 3 > : 2 2 > : > 4 3 > 4 3 , 2 4 8 2 > > 2 2 ; ; 3 4 3 > > > > > 2 4 4 3 3 y v ` +.+.o.",
"V  .%.O.N s 8 8 4 2 > ; ; 4 4 4 : ; : 4 4 > 2 4 4 2 ; ; 2 4 2 > > : * 2 4 3 2 2 4 4 > * : 4 3 2 2 > ; : > 4 2 > 4 4 4 ; ; > 4 4 > 2 3 > 2 4 3 3 4 w g ! +.+.o.B ",
"..O.%.O. .N l 8 > > 2 > 2 4 3 : * & * = ; ; 3 4 2 ; & & ; > ; ; * * & * : = , 3 3 > * & * ; > > * & * * * : = : 4 3 : * % * ; > > 2 4 > 2 8 2 ; : w b ^ O.%.o.` ",
"..O.O. .V V b t > > , : > > * # # # # # # $ ; > & % + # # & & # + # % + # # * : ; * + # % # * * # @ # # # # # & > ; % # # # # & * = > ; : > > ; < 9 g b ^ +.O.o.",
"V o...c g n c u 8 : & $ # # o o O + o X X X @ # + o o + + + o o o + + o X   o @ # + o o + o + + X o + + X X X o # # o + + o o + + @ # # $ * : 3 3 > , i b o.o.^ ",
"o.o...v g c h u t : @ O o o o X o X X       X o X o X X X X X X   X o X X     o o o o o X X o o X   X X       X X o X o o X o o o o X o O # : 8 8 4 q f m o.+.@.",
"O.o.V m b b h t t = @ X   X X o X X   X     X X X X X X X X X X   X   X X X X X o o o X   X o o X X X X X X X X X X o o o X X o o X X   X @ : t y f b b M ~ @.#.",
"n b c m M C b i , & O . . X X o o o X X X o X X o o X X X o X X X     o o X X X o + o X   X X X X X o o X X X X X X X o X   X o o X X   X @ & , f n  .M m b m W ",
"H M M m m N b s : $ X X X X X X o X X o o o X X X X X X X o X X   X   X X o X X o X X       X X X o X o X X X o o X o X X   X X o X     . o $ < p b N n n M M W ",
"~ ~ o.M z j u t < # . . X . . X . X X o o o X X X X X X X X X X X       X X X     X   X X X   X X o o X X X o + X X o X X X X o X X   X     @ > t a k b N ^ _ ^ ",
"O.+.O.o.B j y 3 = # X X O O X . . . X X X X o o X X O + + X X o O + + o o o o o X X O o X o o o o o o + o X o + o X o X X X o o o X X   X X # = 7 y l N o.+.O.+.",
"+.O.o.o.V z y > : & O O o X X X X X X X X X o @ + @ # & % @ + # & & $ # + % % & + + # + + # + + % % % $ # + @ + @ o o X X X o o o o X   X O $ > , y b V  . .O.+.",
"C V N N M c i 4 4 : @ X   X     X o o X   o @ % # % ; > > * * : 3 > & & & ; 2 4 > & % % % % % ; > 2 > ; * & % % * & # + o     X X o o X . $ : 3 7 y b n N V V V ",
"M N B M c i 8 4 2 & o X X X X X X X o X + + % - * * ; > 2 > > 4 4 2 ; ; ; ; 2 4 2 ; & % % % * > 4 4 > 2 2 2 ; ; 2 > : % o       X X O X . O & 3 7 8 i b N N N M ",
"m M ~ ~ c 8 5 , ; @ X X o o X X X X X o + % ; < ; ; ; : > > 3 4 2 > > 2 2 ; > 4 4 ; * ; * * ; > 4 > ; > 4 4 > > 4 4 3 % o     X X X X . . . # ; , 3 w b V V N n ",
"B N N ` ! g 6 - % @ X X o o o X X X X X + * 2 4 > 2 4 > : * > > ; > 4 4 2 * * : > ; * 2 3 > : : < ; & * > 4 2 > 3 2 * @ X X . X X X       X @ & * 9 g ` ` N N ~ ",
"` ` N ` N c w : & + X X X o o X o X X X + * > 4 > 2 4 4 1 , , > ; 2 4 3 > : ; * ; * * 2 4 2 > : : < > < : > : : > 2 * @ X X X X o X X X   X + & < q b ~ V N ^ o.",
"+.o.~ B M b u 3 = @ X X X X X X o o X X + % ; 2 : < 4 p g s w 0 4 5 2 , 5 7 > ; * * * > 4 4 , < 4 w s 0 5 : * * > 2 > $ o X X o o o X o X X # ; 3 f z N B V @.$.",
"$.+.` ` V m f t 3 = O X   X X X X X X o + % ; ; > > 4 H M c c c u 3 , s c c w 4 7 3 > 7 8 3 5 q l b b J g 5 - ; 3 4 > % o o X X X o o X o @ * 5 4 h M ` ` ` +.$.",
"+.o.` ` ^ B f 8 3 = @ . . X X X X X o o + % ; > 2 4 e N N x J X.' Y D U X.*.U K P K F G G F Y L P v c ! V d 6 , 3 3 : # o o X X X o X X X @ = , 8 l Q ^ ` ~ o.O.",
"` N z m N ` S , = $ O X X O X X X o o o o % > 4 3 i S I J r E q.h.h.s.4.t.n.e.3.6.p.f.5.3.7.s.7.E S Z Q V n s 3 > ; % @ o o o X X o o X X O $ = , g ^ ~ m m B ` ",
"^ ~ M z m M l 8 = $ X . X o X X X X o X + * 3 t 4 i l b L { h.L.~.Q.J.N.G.!.J.M.H.U.R.B.M.J.U.K.j.u.| / M c f 8 3 : & @ X X X X X X O X . X # : 3 l M b b M ~ ~ ",
"^ ` ^ m j m k t 3 $ X . X X o X X X X o % > 8 u t a z b U 7.C.^.'.`.(.!.~.`.~.T.(.`.'.~.T.~.`.`.W.C.w.( b l k u 8 3 : # O X   X X X o X . X & 3 t j c z m ` ` _ ",
" .C B N M M c y 4 < @ X X X X X X . X $ > 8 p l m M m B @.4.z.D./.[.'.`.'.'.`.`.'.'.'.`.`.'.'._.D.z.4.@.N m M m l y 7 > $ X . X X X X . X $ = 8 y g N N M ~ o.O.",
"V N m m M N c i 5 * + X   X X X X . X $ = 7 f n B M m M ) :.d.F./.[.[.[.'.'.'.'.[.[.'.'.'.'.[._.L.p.:.~ M m N B v s 7 = $ . X . . X X . X @ = 7 y b B M m M ~ ) ",
"b b b b M M b i < @ X   X X X   X . . O $ , f n m m b b W [ b.Q.'.[.'.'.'.[.'.'.'.'.'.[.'.'.[.`.R.b.[ W b b M M m f , $ O X X X X . X   . X $ : s b N b b m H H ",
"~ ^  .N b j a 8 : # X X X X X X . . . X $ 3 y a j M ~ ^ ` 2.x.Y.`.'.'.'.'.'.'.'.'.[.'.'.'.'.'.`.U.x.2.@.C ~ m j h y , @ . . X X X .   X . . @ < y a h b B ` ^ ^ ",
"O.O.O.` M h t 7 : $ X X X o X X X . X O $ > 8 u c B o.O.$.<.x.Y.`.[.'.'.[.'.[.'.[.'.[.[.'.'.'.`.P.x.<.$.O.o.N j y 4 : $ O X O X X X X   . . $ > 3 t j M  .O.+.+.",
"+.O.o.O. .n p > : & O o o X X X X . X @ = > 3 f B  .C O.O.-.x.!.`.[.'.'.'.[.[.'.'.'.'.'.'.'.[.`.U.l.#.O.O.o.o.Q u 7 = = @ X X o X X X X X @ $ : , p n  .O.o.O.+.",
"` V ~ B M c y 3 3 = @ X X X o o O X X $ = 3 8 s n M N C ^ ~ q.L.`.'.'.[.[.'.'.[.'.[.'.'.'.'.[._.A.9.~ ^ C N M b w 8 3 = $ X X X X X o X X $ = 3 3 i b M B V V V ",
"M M N m c s 8 7 7 = @ X   X X o X . . $ : 4 8 q k b m N M m 2.N./.'.'.'.'.[.'.'.[.'.[.[.'.'.'./.M.1.b B B m b f 8 8 8 = # X X X X o o . . O = 3 7 8 s c M B N M ",
"m B ` V b q 3 > = @ X X o o X X X .   o $ > > 3 f n ..V N N ;.c.~.'.'.'.'.[.'.'.[.[.'.[.'.'.'.~.c.-.N B V V n p 7 > = $ . X o o X X X X     @ = 2 3 w b C ~ ~ m ",
"B N B ` ~ f 9 : & O X X o o o X X .   X @ = > 7 c N o.N N O.t.B.).'.'.'.[.'.'.[.'.'.'.'.'.'.'./.N.r.O.B B  .B c 0 : = @ X X o O o X X X   X @ % : 9 g B ` B ~ ~ ",
"` ~ M V ^ v w : & @ O X X o o X X     o # & , s N V B M ^ <.M.T.`.[.'.'.'.].].].].[.[.'.'.'.'._.T.c.<.Q M B V N w > & @ o X X o o o X X X X @ & : w n ^ V m ~ o.",
"+.@.C V M z p 3 = $ . . X X X X O X X O $ > 8 f b B V C #.r.J._.'.'.'.'.].].].[.].'.'.[.'.'.'.'./.Z.r.O.V V N b a 8 : $ X   X X X X X X X X # : 3 f z M B ` O.;.",
"$.+.` V B b a t , & O .     X X X O O @ = 8 t h M B V o.$.r.Z._.'.'.'.'.[.'.[.[.].'.'.'.'.'.].'./.Z.4.&. .V B m h t , = O X   X . X o o X O & , t k b N C ` +.&.",
"+.` V C ` ~ f 4 3 : @ .   X X X X X . $ : 3 y c ^ ` B V O.;.v.Q.'.'.'.'.'.'.[.[.].'.'.'.'.'.'.'.!.x.-.o. .V  .V x 8 7 > & X .   X X X X X $ > 7 4 f ~ o.` V o.+.",
"` V M M V V l 7 > & o X   o o o o X O @ & > w b ^ B m N ~ @.y.U._.'.'.[.[.'.[.[.'.'.'.[.].].]._.J.y.o.B M m V V c 8 : & @ X X X o o O X X @ & : 7 g ~ B M M ~ ` ",
"~ B M c b N g 7 = # X X X o + o O X . X @ = w x M m m M M ) y.L.`.'.'././.'././.`.'.'._./.'._./.J.e._ M m b n n x q : @ O X X O o o o X . X @ = 7 l N b z M ~ ) ",
"o.o.` m j z h t 4 & X . X X O o + o     @ * , q f m  .V W P d.Q._.'._.F.S.W.F.S.W._._.R.S.W.E.I.C.d.} W M B b h u t 3 $ O o X o X X o   X X $ 7 t h c j m ` o.@.",
"` ` ~ m b M l i 4 : O . . O o o o X   o # > , 4 u v  .B W ] a.S.I.R.S.i.a.S.b.i.V.F.I.g.a.V.V.m.i.8.} ) B B z u t 8 3 $ o o o X X X X X . @ = 7 y j M b m V ` @.",
"~ M b m B ^ v i 5 = @ X . X X o X X   o & 2 3 8 u b V B / } 8.p.k.p.i.] :.k.9.:.2.p.p.} ] 0.e.5.' ) @.o.` B z y t 4 ; @ o o o X   X X   X @ = 7 i n V B m m M ~ ",
"b W m m b M b i : # X X X X X X X X X o @ : 3 t u c B C O.@.X.=.;.-._ _ @.,.#.#.$.;.=._ ^ -.,.&.O.O.+.+.o.` m u t > & + o X X X X       . O # > p b M b m M W J ",
"W ~ ` M m k h t - @   X X X X X X X X X @ & 2 t h b V O.+.O. . . . .C O.+.O. .O.+.+.o.O. . .+.+.o.O.+.o.o.` N z t > & + X X o X X X   X . . $ = w h l b N V ^ / ",
"O.+.+.o.N k i 3 : # X o X o o o o X X o # * > t z B O.o.o.+.O.o.o.o. .O.+.O.o.` +.+.%.%.+.o.+. .B ` o.B M ` ` M u 3 ; # o X o o X X X   . . $ = 4 y l N  . .+.+.",
"+.O.o.` ~ b y 3 > & + X X X o o o o X o # ; 3 u M V C B V o.V N V ^ V ` ` ` V C O.%.%.O.o.` O.o.N M ~ z j m Q J u 4 > % o X X o X X . . . @ = : , y b V  .o.O.O.",
"` ` ~ B B b y , , = @ o X X X X o o X o # > 4 u m N b z b V M b N N B M m M B V C C o.C V ~ ^ ^ b z z f y y f f 8 3 > % X     X X X O . O @ = , 3 i b N  .V V  .",
"m M N M l q 8 8 3 & O X X X X X X X X o % > 3 5 s s i t h c f u g J Q f i b N B z W M W N N N b i 8 8 4 3 > 3 3 : ; & + X X X X X X o   X o & 3 4 8 w l M B N M ",
"m N B N b q 2 , = $ X X X o X X X X X o # ; > > 8 4 2 3 4 q 7 3 0 e s 5 3 i z z t t k f s d f u 5 : ; > : ; > 4 2 * # o X o o X X X X X   X # : 3 3 w b B V M m ",
"B B V ..V s 7 = & @   X o + X o o o o X o # ; 2 3 3 : > > > ; ; > , , : : 5 q 8 2 > 3 5 1 5 5 , ; ; ; ; ; : 2 4 8 > $ X X o o o X X X     X O % ; 5 g ! o.B B B ",
"o.V N V B c q : & @ X X X o X o + o X X o # > 8 4 > ; : : ; ; ; 3 3 > 3 3 3 2 > : : > > , 3 > : * ; > 3 > : ; > 4 2 * + X X o o X X X   X X + & : w b B V M ^ @.",
"O.o.N ~ B b s 3 - # o X X X X X o o X X + & 2 4 > : : > 2 > > ; 4 2 ; 4 4 2 > > 2 2 > ; > 4 2 : * : 4 4 2 ; * ; > : % + X X X X X X X X X X $ = 3 a b B B V ` #.",
"&.+.o.o.V b a 8 5 * X . X   X X X X X o + % > > * * ; 3 4 4 > > > ; ; 2 4 4 2 2 4 4 > ; : 4 4 > ; > 4 2 * % # & * # + X X   X     X o o X O = 3 t f b B ` O.+.$.",
"+.o.B V V N g 8 , = O X   X X X X X   X o + % & % % % ; 2 4 > * * & & * : = > 3 4 2 & & * ; > : & * > * # + + # + o X X o X X   X X X X O @ = , 8 f ~ V V V o.+.",
"o.B b M B  .g 3 = & @ X   o X X X X o X   X + % + + + # ; > & # # + % # @ @ = > : * + # % # & & + + @ # O   o O o X X o o o X   X X o X X @ & : 1 x ! V M m B C ",
"N B M b b M l 8 * @ X   X o o X X o o X     X o o X   o @ # O X X O + o X X + # # @ o O + o + + o   X X X   X X     X X o X X X X o o X X X + - 7 f N b b M B N ",
"V ^ V c h f f q > # X X X o o X X o o X X   X o o X X X o X o X X o o X       o o O X o X X o + o                 X o o X X X X o o o X   X % < 8 a f f z V V V ",
"o.` B z f y t t 5 * O X X X o X X X X X o   X X o o o X X X o X X X X X X X X   o o o X X X o + X X X X X X X X X o o o X X X o o o o X o o % 3 t y s a c B  .o.",
"B M b z c H f 3 > & @ X X o X X X X X o o X X o o o X   X X o X X     X o X X X o o o X   X X X X X X X X X X X X o o o X   X X o o X X o + % 2 7 f v c z m M B ",
"B M m z n ~ v w < % @ X X X X X       o X X X X o X X   . . X         X o     X o X X X     X X X       X X X X X o X X X     X X . X . X + % 2 w v ! M j m M N ",
"o.C B c b C ! v 6 & O X X X X X     X X   X . .     X   . X . .     X X X X X X   X X X               X X X X X X X X       X X     X X o o % 6 J ^ ..m m B ` o.",
"` V m j l n v d < % @ + + X o + o o + o o + o o o o o o o o o o o + o o o o + + X + + + o o o X @ O o @ o X o @ + X o + o o + o X o o o + o % 1 Z c b z j m B ` ",
"B M z z z f w 1 - * & & # @ % * * % % @ @ & % # @ @ @ @ @ @ # % * * % # # @ % % + + + + + # @ # & * & % # @ & & + % + + + + + + # # % % % % % - 1 w k z z j M V ",
"M m M V ~ c 9 - % * > : ; % > 4 > ; % % * 2 2 > * % % % % % ; > 3 > * % * * > 3 ; % % % # % % * 2 2 > * % % < 2 > ; & % % % % % : 2 2 ; * * % % * 0 H ! V M m m ",
"V B M N ^ Q s < * : 2 > ; ; 3 4 2 : ; ; : 2 4 4 ; * % % % % : 4 4 > ; ; : ; 4 4 3 ; % % % % * > 8 4 > : ; ; > 4 4 2 * % % % % * 5 4 5 > : > ; * > s Q ^ B M B ` ",
"O.` z z M ^ c 8 > ; : < ; > 3 3 > > 3 2 > ; 3 4 : * * * * * 2 4 3 > > 3 > ; > 3 4 ; % ; ; * ; 2 4 2 : > 2 > : > 4 3 ; * * * * ; 4 4 > : > 3 > > 8 b ^ M b m V O.",
"B m h a l M f 8 > ; * * * ; ; : : 2 8 2 ; * : > ; ; : 2 > ; : > ; > 3 4 2 * ; : > ; * > 2 : : < : : > 4 4 > * * > ; ; ; 2 2 : ; : > : > 3 3 3 1 q l b l u j m V ",
"b z j a a j l i 8 > - * * * - : : 3 4 2 : ; * * * ; > 4 4 : : : ; > 4 3 > < * * ; * * 2 4 3 > * ; : > 4 3 > : * ; * * < 2 4 2 : > 5 8 5 2 2 6 w s f u y u j b m ",
"m M B z a a b n g i 7 7 3 : , 1 2 2 2 5 7 5 > * * ; : 4 4 2 2 1 , 3 3 , 5 9 2 ; * * * 2 4 4 2 : 3 5 , 2 , 5 3 , ; * * : 2 4 5 , 9 Z J s > > 9 d J x q q l N M b ",
"V C V z h m B ~ H c c K S e g g 4 , r s g i 9 9 > , 5 q q 3 r Z s 7 , e g l i 9 5 2 : 4 q 3 9 0 g i , 1 s c s q 8 4 , , q q 4 5 g ( >.R A q i x ! Q f a z V ^ B ",
"O.O.~ j j M ` ^ v J ..*.' P ! I 0 5 e W Q f f f t q w w q 1 l W x w 1 x Q W f A a t 3 A i 5 0 d Q g , 0 G ! v s s i 8 q i i 5 0 Q ,.6.{ T f f G ..! n h l C O.O."
};
