/* XPM */
static char *_887014c1c074502b52b0b1e0c3d58ccJP1V95sUOCvJUAHA[] = {
/* columns rows colors chars-per-pixel */
"80 80 247 2 ",
"   c None",
".  c #16151A",
"X  c #19161B",
"o  c #1B191D",
"O  c #17191A",
"+  c #130F14",
"@  c #221C1E",
"#  c #2B1A1B",
"$  c #3C121D",
"%  c #28231A",
"&  c #392C17",
"*  c #3A3519",
"=  c #1D1C22",
"-  c #171C26",
";  c #221D21",
":  c #2B1F20",
">  c #152221",
",  c #1A222B",
"<  c #192724",
"1  c #0D3828",
"2  c #153628",
"3  c #1A2934",
"4  c #1B2F3A",
"5  c #1C333A",
"6  c #0F2B21",
"7  c #242125",
"8  c #2B2325",
"9  c #262829",
"0  c #392A26",
"q  c #362928",
"w  c #27342A",
"e  c #383724",
"r  c #252C35",
"t  c #2E2E34",
"y  c #293834",
"u  c #383639",
"i  c #312F33",
"p  c #18221C",
"a  c #433217",
"s  c #443819",
"d  c #4A3517",
"f  c #422E2A",
"g  c #47332C",
"h  c #4A3834",
"j  c #593D36",
"k  c #533B35",
"l  c #55362D",
"z  c #5B2024",
"x  c #0B4B32",
"c  c #085B39",
"v  c #0B4A2F",
"b  c #314B34",
"n  c #016B3F",
"m  c #02643B",
"M  c #484724",
"N  c #444625",
"B  c #4E5328",
"V  c #564639",
"C  c #67463B",
"Z  c #764A3A",
"A  c #744B26",
"S  c #5B682B",
"D  c #6A782F",
"F  c #705016",
"G  c #1D3844",
"H  c #203641",
"J  c #2A3944",
"K  c #393A45",
"L  c #413F42",
"P  c #36444A",
"I  c #244A59",
"U  c #344D50",
"Y  c #066C41",
"T  c #017344",
"R  c #037D4A",
"E  c #057948",
"W  c #15784A",
"Q  c #3A6D4C",
"!  c #275565",
"~  c #275768",
"^  c #275869",
"/  c #28596A",
"(  c #2D5667",
")  c #34596B",
"_  c #396478",
"`  c #3A6376",
"'  c #1C5C42",
"]  c #484548",
"[  c #574B47",
"{  c #545355",
"}  c #474952",
"|  c #694C41",
" . c #734E41",
".. c #7A5547",
"X. c #6F5950",
"o. c #476E52",
"O. c #6E6557",
"+. c #585A69",
"@. c #575966",
"#. c #495868",
"$. c #615F61",
"%. c #45677A",
"&. c #6A6E7F",
"*. c #6C6C74",
"=. c #767477",
"-. c #6F6B6C",
";. c #851021",
":. c #B21024",
">. c #912A2E",
",. c #CB2C20",
"<. c #8A6212",
"1. c #876313",
"2. c #946A12",
"3. c #926F0C",
"4. c #AB7810",
"5. c #B56E1E",
"6. c #89503D",
"7. c #886524",
"8. c #D54C23",
"9. c #835A4A",
"0. c #8E5D49",
"q. c #94614D",
"w. c #9A6954",
"e. c #8D6858",
"r. c #A56D55",
"t. c #AE7359",
"y. c #A3745F",
"u. c #B1755A",
"i. c #B97659",
"p. c #AE674B",
"a. c #8D776D",
"s. c #A77863",
"d. c #B67D63",
"f. c #C47A5B",
"g. c #C27F61",
"h. c #CE5445",
"j. c #7A8832",
"k. c #7A8E32",
"l. c #01844D",
"z. c #02874E",
"x. c #028951",
"c. c #088952",
"v. c #16915A",
"b. c #158E59",
"n. c #2B8D5B",
"m. c #2C9C62",
"M. c #379A67",
"N. c #38A368",
"B. c #49885C",
"V. c #4D9467",
"C. c #57A36C",
"Z. c #45A87C",
"A. c #4FAA6E",
"S. c #70807A",
"D. c #889736",
"F. c #899B36",
"G. c #90892A",
"H. c #9AAB3A",
"J. c #95A639",
"K. c #8DA238",
"L. c #A9B63A",
"P. c #ADB73A",
"I. c #B18811",
"U. c #D9970C",
"Y. c #CC8A10",
"T. c #E39011",
"R. c #EAA30A",
"E. c #E8B508",
"W. c #BAC23C",
"Q. c #EFD107",
"!. c #C2C83D",
"~. c #F5E31D",
"^. c #93867B",
"/. c #BA856C",
"(. c #A78877",
"). c #B68E7A",
"_. c #968058",
"`. c #CA8364",
"'. c #C78669",
"]. c #D38B6A",
"[. c #D98F6D",
"{. c #D18766",
"}. c #DA906E",
"|. c #C58C72",
" X c #DD9573",
".X c #D8987A",
"XX c #CD9276",
"oX c #E09674",
"OX c #E59C7A",
"+X c #E59B79",
"@X c #EAA17D",
"#X c #F4AD7D",
"$X c #EAB84A",
"%X c #ECE240",
"&X c #486C81",
"*X c #4D7085",
"=X c #4D748A",
"-X c #757781",
";X c #837F82",
":X c #56AA86",
">X c #75B294",
",X c #68A78C",
"<X c #858485",
"1X c #918D8E",
"2X c #979595",
"3X c #8B9293",
"4X c #BB9A87",
"5X c #A29E9E",
"6X c #AC9587",
"7X c #8BAC9C",
"8X c #A7A7A7",
"9X c #BAB7B7",
"0X c #B1AEAD",
"qX c #9FA4A2",
"wX c #C4A28F",
"eX c #CAA995",
"rX c #D2AD97",
"tX c #DCA88D",
"yX c #EDA583",
"uX c #E7A484",
"iX c #F3AA85",
"pX c #F6AD8A",
"aX c #F8AF8B",
"sX c #F1A884",
"dX c #FAB08C",
"fX c #F7B08E",
"gX c #F6B493",
"hX c #F8BA9B",
"jX c #E8B195",
"kX c #D0BAAD",
"lX c #F0BDA2",
"zX c #DF9F80",
"xX c #97C6AE",
"cX c #A3C9B4",
"vX c #F8C7AA",
"bX c #F7CCB1",
"nX c #EFCBB5",
"mX c #E2C79A",
"MX c #B8D7CA",
"NX c #D9D6D7",
"BX c #CAD2CD",
"VX c #F5DAC6",
"CX c #EBDFD9",
"ZX c #EDE5D9",
"AX c #F8FBF9",
"SX c #F0EBE9",
"DX c #C9E4D3",
/* pixels */
"                                                                                                                                                                ",
"                                                                                                                                                                ",
"                                                                          o X X X X X X X X X X X X X X X o                                                     ",
"                                                                          r r r r r r r r r r r r r r r r r                                                     ",
"                                                                    ; ; ; #.=X*X*X*X*X*X*X*X*X*X*X*X*X*X*X&Xt X o                                               ",
"                                                                X - K U U ` _ _ _ _ _ _ _ _ _ _ ` ` ` ` _ _ ) U U r                                             ",
"                                                              r - ; ) =X=X) ^ ^ ^ ^ ^ ^ ^ ^ ^ ^ / / ~ / / / %.=X&Xt -                                           ",
"                                                            X P &X%._ / / / ^ ^ / / / / ^ ^ ^ ^ / / / / / ~ r H ) %.P =                                         ",
"                                                            u ) &X%./ / ~ / / / ^ / / / ^ ^ / ^ / / / ^ ^ ~ H 4 I ` U J                                         ",
"                                                          ; %._ ^ ^ ^ ^ ~ ( ~ ~ ~ ~ ~ ~ ^ ^ ^ ^ ~ ~ ~ ~ ^ ! I H - I ` %.;                                       ",
"                                                          - ) / ! 3 3 3 3 3 3 < 3 3 3 3 3 3 3 3 3 3 3 3 3 3 3 3 G 3 I ( -                                       ",
"                                                          r I I I s a 0 u s * & a a a a a a a a a a a a a a d e G - r ! t                                       ",
"                                                      X J %.r X & U.R.$XSX%XQ.R.R.R.R.R.R.R.R.R.R.R.R.R.T.R.R.2.= o 3 ! &XJ X                                   ",
"                                                      X r P A F <.<.<.7.^.G.3.<.<.<.<.<.<.<.<.<.<.<.<.<.<.<.2.<.1.F g G U 3 =                                   ",
"    ; 7 ; 7 7 ; 7 7 7 7 7 ; = = - - o     9 7 7 7 7 7 7 o # 5.T.Y.& = X + @ @ @ % o @ o ; ; ; ; ; ; ; ; ; @ . F R.Y.A 7 ; 9 : ; 7 9                             ",
"= $.5X5X9XBX8X5X8X2X5X5X5X5X5X2Xa.u X   X O.rXrXrXrXrXrXa.o & & d 6.r.u.t.u.t.u.t.t.t.t.u.u.u.u.t.u.u.u.t.t.0.A a f e.rXrXrXrXrXrXa.X                           ",
". ] 1X1X8X0X1X1X1X1X1X1X1X1X1X<X=.i X   [ (.lX4X4X4X4XlX(.X g k k 6.q.w.w.w.w.r.[.oXoXoXu.w.w.w.w.w.w.w.t. Xg.q.h o a.lX4X4X4X4XlX4X[                           ",
"= X X = X X . . . . X o = X . . . X X 9 rXvXXXq X X @ |.y.7 u.[.t.: X o @ o X 0 .XpXaXiXj + + . = X X X k sXdXyXg.0 9.zX8 - - : |.hXkXf                         ",
"= =   X ;   . = o X   = , $.u @ { 9 h (.jX/.| Z 6.Z Z Z h 8 |.w.C w.y.t.y.s.w.w.@XpXpX#Xt.0.y.y.y.s.t.y.w. .XXpX}.q f | Z Z Z Z | s.gX6XX.                      ",
"= 9   7     7     7     i 1X{ i =.u X.vXtX9.f p.p.p.6.0 X g OXe.V jXvXgX.XuXuXOX#X#X#X#XzXuXgXzXzXpXhXhX4Xq |.fXuXk ; : 6.p.p.p.g  ..XvXe.-                     ",
"{ {   {     {     {     $.0X=.$.3Xu | uXh  .g.`.{.r.# X j `.yXyXjXSXAXkXq $.0XZX.X@XiX#XVXAXSX[ } 1XSXAXCXuXsXfXiX].C . # q.{.{.g.9.f zXO.X                     ",
"u ]   u     K     u     [ 9X-.} 3Xu | uX..r.+X+X[.u.j @ C +XpXaXgXnXAX9XO u 2XAX.X@XdXiXvXZXSXK ; -.SXCXlXaXpXpXpXOX..@ l p.[.oX+Xd. .uX9.o                     ",
"= ,   o     o     o     t 0X$.i 1Xu | yX XOXpXpX Xg.p.f X.pXaXpXsX].VX9X= . =.SX.X.XiXsX[.rXSXK + L SXjX XpXpXpXpXaXe.q q.f. XpXpXOX[.pX9.=                     ",
"                        t 0X8X2X2Xu | pXyXiXpXpX+Xr.f w..XpXaXaXpXyXlXjX/.|.e.] f g g g f ..vXXX/.|.lXpXsXfXpXpXpXaX.Xs.z w. XpXpXpXyXgX..X                     ",
"                        : <X5X1X=.t C uXpXpXpXyX[.q.@ '.dXaXgXgXgXaXpXpXpXzXe.L ] ] ] V K X.|.iXaXaXpXpXfXgXgXgXgXpXdX.X8 9.].@XiXpXpXyX..-                     ",
"                        = ; - = 7 X V [.sXaXsX[.f.6.; /.dXfXvXbXlXfXpXpXuXh -.VXVXVXVXVXVX6Xq XXaXpXpXpXgXbXbXbXvXgXaX.X8 Z f.[.yXpXiX XZ X                     ",
"                          = t u o = h Z |.+X]. .j f ; /.aXpXhXhXhXfXaXzX..a.eXnXa.eXkXa.kXmX1XX.d.fXpXpXfXhXhXhXhXpXaXXX8 0 l Z '.+X[. .h                       ",
"                          . } #.=     7 r.`.r.7 X o ; /.pXpXpXpXaXaXyXs.u kXVXwXq a.rX8 ^.nXnX[ ..uXpXsXpXaXpXpXpXaXaXXX8 X . X w.`.t.q                         ",
"                          o @.*.=       q q q       ; t.OXpXpXpXaXpXX.X.kXbX6Xi . a.rX: 8 O.bXnXa.k uXOX XpXpXpXpXpXOXd.8       q 8 q                           ",
"                          o @.*X=       = = =       i ..u.yXpXpXpXpXV [ VXbX4XX.X.4XkXX.X.a.bXVX<X0 .XyXOXpXpXpXiXyX'...q         o =                           ",
"                          o +.-X;                     o C ].yXpXpXpX[ [ vXbXbXbXvXbXbXbXbXbXnXbXa.q zXaXpXpXpXpXsX[.Z O                                         ",
"                          o &.3X=                   ; X : k '.oX X Xu.9.[ [ [ [ [ [ [ [ [ [ [ [ e./.iXaXsXoX XoX].C b v , o = =                                 ",
"                          X -X,X7                   w p < u w.u.t.t.f.w.f 0 0 0 0 q 0 0 0 0 0 0 e.sXsXyX}.u.t.t.r.h ' c 3 2 w w                                 ",
"                          X +.-X=               . b C.W B.0Xi o @ @ 6.i.g.`.`.g.`.`.g.`.g.`.`.g.{.[.[.f.0.: ; @ q 8X,Xx.R M.C.C.y + o                           ",
"                          ; +.&.=               U Q m.E :XBXi f  .Z C C  . . . . . . .Z  . . . . .Z  .C C Z  .k 9 kX,XR c.v.N.M.Q Q o.w                         ",
"                          = +.&.=             , B.A.z.l.,XNXu ..[.[.C o ; @ ; : @ ; ; @ ; ; ; ; ; @ @ @ h ].}.0.r BX>Xx.x.l.l.x.A.A.C.w < 7                     ",
"                          = +.&.=           w B.n.c.x.N.xXNXu 9.iXyX`.t.u.u.u.u.t.t.u.t.t.t.t.t.t.t.t.t.g.yXiXy.8 BX>Xx.x.x x c.c.v.v.V.V.B.7                   ",
"                          X +.&.=         y b A.v.l.W C.7X5XC y.aXpXOXoXoXoXoX XoXoXoXoXoXoXoXoXoX XoXoXOXpXdXd.j 5X>XN.c.1 2 R z.z.c.N.A.M.b y                 ",
"                          = #.-X=       o Q A.c.x.Y 9 9X2X@ u.+XaXpXpXpXpXpXpXpXpXpXpXpXpXpXpXpXiXaXpXaXpXpXaXuXg.q <XDXv.1 < Y l.z.x.x.x.v.C.b =               ",
"                      = = . t u o o o = - w b l.R c % 9X2X@ |.iXaXpXpXpXpXpXpXpXpXpXpXpXpXpXpXpXaXaXpXOXOXiXpXsXzXq -XDXv.Q Q 1 E x.x.T R c.n.n.o.o             ",
"                    u q q 0 q 8 o q 9 X 9 w 2 l.Y x y 9X2X% .XpXpXpXpXpXpXsXyXsXsXsXsXsXsXsXsXsXiXpXpX+X XpXpXaXzXq ;XBXv.N.M.- n z.z.Y R x.x.N.B.w             ",
"                  8 wXjXuXuX[.w.; 6X(.7 B.C.C.c.v y C.NX2X7 .XaXpXpXpXpXpX X[.[.[.[.[.[.[.[.[.[.OXpXpXiXpXpXpXaXuXq ;XBXv.c.' . c E c.l.x.x.x.x.v.C.y           ",
"                  8 rXhXuXs.9.C ; XX(.< n.N.m.R 1 b xX2Xa. .uXfXpXpXyXOXoXw.9.......9.....9...9.d.OXOXsXpXpXaXpXyX9.e.3X>Xm.R U v c R l.x.x.z.x.b.M.Q b         ",
"                  7 eXvX.Xq o o o /.s.> E x.l.m 1 { NX] l [.yXpXpXpX X`.g.g o ; @ ; ; ; ; @ @ ;  .`.`.+XpXpXpXpXpX[.| K NX:Xv.A.w 1 n l.x.x.x.x.x.x.A.o.X       ",
"                  7 rXvXsX|.d.9.% t.w.> E R m 2 Q ,XNX] C sXpXpXiX X .q 0 (.wXwXwXwXwXwXwXwXwXwXe.f f w.OXpXaXpXpXsX..u NX:Xx.v.< 2 n l.x.x.x.x.x.c.A.o.+       ",
"                  7 eXhXaXaX+Xr.; ..Z > n T c o Q >XZXU C fXpXsXOXr.| h [ rXbXvXvXvXvXvXvXvXvXvX6XL ] 9.i.yXpXpXpXaXe.K NX:Xz.z.2 2 n R l.x.x.x.z.l.N.Q b       ",
"                  7 rXvXpXaX+Xr.; X o - c n c O c :XNX] | pXpX@Xu.@ (.bXvXgXpXpXpXaXaXaXdXaXaXaXhXbXvXX.f `.yXaXpXaX9.u NX:Xz.l.2 6 v m T x.x.x.l.n x.m.C.7     ",
"                  : eXhXuX9. .k o l l O c x v Q b.N.ZX} | pXfXsX.X(.rXhXgXpXpXpXpXpXpXpXaXaXaXpXgXhXhX4X(.OXiXaXaXOX..u NX:Xz.z.W b 1 m R x.z.z.l.l.z.m.C.9     ",
"                  7 rXlX.Xg 9 : o 6.6.> c 1 9 C.m.Z.BX] ..pXpXpXgXvXgXpXpXpXpXaXpXpXpXpXaXpXpXpXiXpXpXvXvXaXaXpXsX'.X.} MX:Xx.x.A.Q O c T x.x.x.x.x.x.m.C.<     ",
"                  9 rXvXaXzX'.q.; w.q.O v 1 < c.xX8Xu q.[.dXpXiXpXgXaXaXpXpXpXpXaXaXfXaXpXpXaXpXpXpXiXpXpXpXpXaXuXk a.9XM.c.x.x.E x O v m T z.z.x.z.z.m.C.9     ",
"                  9 a.s.s.s.w. .; Z C o 6 6 6 R cX0XX t.@XdXpXpX#XdXyXyXpXpXpXpXpXpXpXpXpXaXpXaXpXpXpXpXpXpXaXpXXX0 ;XDXb.x.x.x.T v . 1 v m R z.x.x.z.m.C.7     ",
"                    ; o . X X = X . . X O . 6 R cX0X: /.fXpXiXpXpXpX X XpXaXpXpXpXpXpXaXpXpXpXaXaXpXpXpXaXaXaXOXg.0 ;XBXb.x.x.l.Y v X X 1 v m l.x.c.x.m.C.w     ",
"                          o K K =         = < R xX9Xo t.@XpXpXpXpXpXsXyXpXpXaXpXiXpXaXpXpXpXpXpXpXiXoXyXaXaXaX@Xg.$ ;XDXb.E E x.T v . . @.7X7XcXMXMXMXDXDX9X=.o ",
"                          X } @.=           < l.>X8X] e.'.sXpXpXpXpXpXaXpXpXpXpX#X XXXpXpXaXaXpXpXiX XOXpXpXiXXXy.j ,XcXb.E T R Y v X X -.8X8XBXNXDXNXNXNXNX$.. ",
"                          X @.&.=           6 R c.:XBX} C }.iXpXpXpXpXpXpXaXpXiX X .k uXpXpXaXpXpXpXpXpXpXpXoXq.i 9X>Xb.x.x.R Y n v =   9 9 7 = 7 , @ , , , o o ",
"                          . #.-X=           > T x.Z.NX} l f. XsXpXpXpXdXpXpXaXuX....s.iXaXpXpXaXaXpXpXpXiX+X`.6.8 NX>Xl.x.R T Y m 1 X   ; :  . ...Z Z Z Z ..g o ",
"                          X +.-X=           < c R N.BX{ l p.g.oXpXiXiXiXdXiXdX.Xi y.aXaXaXaXpXiXpXiXpXpXyX`.p.Z u 9X>Xl.l.T Y c v 1 O   = q i.].[.[.[.[.[.[.C . ",
"                          = @.&.=             < c R Q 7X-.f p.f.}.}.[.oX#XaXdXdXzXuXaXfXaXaXpX X[.[.[.}.].p.l [ qXV.W Y T Y m x 6 >     7 o q d.sXsXsXpXiXiX... ",
"                          X @.-X;             X 1 x x S.$.@ C p.`.].].[.@X@X@XOXd.d.d.d.d.|.zX[.{.].{.g.i.Z [ -.,X' x x x x v 1 O o     = 7 k |.zXd.uX.X/.yX..- ",
"                          X +.*X=             o = - X o o X X C p.{.{.].{.].].d.q X ; # . j ].{.].{.{.f.6.: 2X>X' - . - O O O O X X     = q `.@X/.8 XXe.q zX..X ",
"                          o +.-X=             X F 4.4.4.I.3.% & g k j j j j j C 6.>.;.;.;.z j l j j j l f o ] P 2 3.4.4.4.4.4.4.a =         k C h = k h = V [   ",
"                          o #.-X=             = <.U.U.U.U.Y.d * u * & & & & % # h.8.,.,.,.;.X & & & & & g b & & d Y.U.U.U.U.U.Y.s >         O . . X . . X X     ",
"                          . @.-X;           = X ; & & # & a U.mXVX~.E.R.U.R.<.# :.T.Q.Q.8.;.% I.R.R.R.Q.%XZX$XR.U.a % % % % % % x x o                           ",
"                          . #.-X,         2 x 1 1 1 1 1 2 v F _.^.G.3.2.2.<.F # :.8.T.T.,.;.@ F 2.<.3.3.G.1X7.3.3.X.P 1 2 1 1 v Y m x 3                         ",
"                          o @.-X-       - x l.Y Y Y Y Y n m > . + + O O O @ O # :.:.:.:.:.;.% p o o . . . X X X 7 0X,Xn n n Y Y l.x.R <                         ",
"                          o @.&.-     < m T x.R R R l.x.R c.3X{ p j.j.j.j.j.D S & $ $ $ $ g S j.j.k.k.j.j.j.j.S 9 BX>XR l.R R R l.z.l.T x =                     ",
"                          o +.&.=     , M.:XZ.:XZ.:XN.Z.:XN.3XO.M H.L.H.H.H.K.j.M e * e e B D.J.H.H.H.H.H.H.L.j.M 8X7XZ.Z.Z.N.:XZ.N.:XZ.U X                     ",
"                          o +.-X=     q DXAXAXAXAXAXAXAXAXSXK S L.!.!.W.H.H.H.H.J.J.J.H.J.J.J.H.H.H.H.H.H.H.!.P.F.w <XAXAXAXAXAXAXAXAXAXS.=                     ",
"                          # +.&.=       =.=.=.=.=.=.=.=.-X=.S F.W.!.W.H.k.S B B B B B B B B B B B B B B S k.L.P.P.D O.O.*.=.=.=.=.=.=.=.] o                     ",
"                          X +.*X=       . o % % p % % % p w F.W.!.W.L.F.D w - > > > > > > > > , > > p o % D F.L.!.P.S p % p % % p % % % o o                     ",
"                          = @.-X=       X B F.D.D.D.D.D.F.F.W.!.W.L.F.S % Y R E R E R l.R R R R E R l.l.n % S F.H.W.L.D.D.D.D.D.D.D.D.F.B o                     ",
"                          X @.&.=         B D P.L.P.P.P.P.P.!.!.P.F.D b = x m c m c c ' c c c c c c c m x O b D K.L.P.L.L.L.P.L.L.P.H.j.M                       ",
"                          o +.-X=           0 P.!.!.!.!.!.!.!.L.K.j.w O O o X X . X X X . X X X o o o X X X X e j.K.L.!.!.!.!.!.!.!.P.e                         ",
"                          o +.&.=       ; o @ N M M M N N M M g e e                                           w e e N M M M M M M M N o o 7                     ",
"                          @ +.*X=       , 9 r - , , , , , - > < - X                                             - - > < - , , - , - - r , ,                     ",
"                          X +.-X=     - I _ %.! ^ ^ ! ! ~ ~ ^ I G o                                             o G I ! ! ~ ~ ~ ^ ^ / %.` I =                   ",
"                            ] }       = r J U G H H H H G H H 5 3 o                                             X 3 5 H H H H H H H H P J 4 X                   ",
"                            X o       o X o X - X o X o X X X o o o                                             o o o o o X o X o o o X X o =                   ",
"                                                                                                                                                                ",
"                                                                                                                                                                "
};
