/* XPM */
static char *_5e72bd0f2bd487ba9bebf3dee4e1f10bhlDD2WZZnOxRNea[] = {
/* columns rows colors chars-per-pixel */
"80 80 224 2 ",
"   c None",
".  c #010101",
"X  c #0A0606",
"o  c #0B0A0A",
"O  c #05070B",
"+  c #130C0C",
"@  c #180E0E",
"#  c #18110D",
"$  c #000611",
"%  c #030A14",
"&  c #0A0D14",
"*  c #050C19",
"=  c #140F14",
"-  c #0E131D",
";  c #04131B",
":  c #131212",
">  c #1B1211",
",  c #1A1A1A",
"<  c #231616",
"1  c #231B16",
"2  c #251C19",
"3  c #2A1A1A",
"4  c #271B18",
"5  c #301D1D",
"6  c #2A221D",
"7  c #33251D",
"8  c #0D1523",
"9  c #00102D",
"0  c #021928",
"q  c #171B29",
"w  c #051837",
"e  c #101E37",
"r  c #331F20",
"t  c #1D2A3E",
"y  c #14293B",
"u  c #002334",
"i  c #282828",
"p  c #252228",
"a  c #362222",
"s  c #3D2525",
"d  c #3A2828",
"f  c #353636",
"g  c #3B3B3B",
"h  c #303435",
"j  c #452A2A",
"k  c #4B2C2C",
"l  c #412626",
"z  c #47372E",
"x  c #4D3131",
"c  c #4C3B31",
"v  c #463433",
"b  c #553434",
"n  c #593434",
"m  c #5E3B3B",
"M  c #633E3E",
"N  c #6B3E3E",
"B  c #554236",
"V  c #5B4537",
"C  c #67463D",
"Z  c #011C4B",
"A  c #0F2345",
"S  c #0F2548",
"D  c #132546",
"F  c #00354F",
"G  c #072355",
"H  c #122B54",
"J  c #003650",
"K  c #033A52",
"L  c #0A3A51",
"P  c #18315A",
"I  c #29354E",
"U  c #2A374C",
"Y  c #032968",
"T  c #163465",
"R  c #012B73",
"E  c #002E7F",
"W  c #093279",
"Q  c #143978",
"!  c #283D61",
"~  c #493E40",
"^  c #693F40",
"/  c #14465D",
"(  c #01496B",
")  c #1D417B",
"_  c #004F75",
"`  c #364B73",
"'  c #2F5475",
"]  c #396376",
"[  c #444444",
"{  c #4D4D4D",
"}  c #4E4945",
"|  c gray32",
" . c #45475C",
".. c #644342",
"X. c #6C4242",
"o. c #6B4949",
"O. c #734545",
"+. c #7B4646",
"@. c #764A49",
"#. c #7D4A4A",
"$. c #764748",
"%. c #695346",
"&. c #765946",
"*. c #795552",
"=. c #685752",
"-. c #706359",
";. c #465C65",
":. c #505675",
">. c #4F6A74",
",. c #6A6A69",
"<. c #676664",
"1. c #766B7A",
"2. c #767676",
"3. c #7B7B7B",
"4. c #76797C",
"5. c #6A7678",
"6. c #814B4B",
"7. c #865151",
"8. c #895252",
"9. c #8E5B5B",
"0. c #845B5A",
"q. c #915D5D",
"w. c #8F4C4D",
"e. c #AA5F59",
"r. c #8E605F",
"t. c #97645A",
"y. c #97735C",
"u. c #85624B",
"i. c #956362",
"p. c #996766",
"a. c #9D6A69",
"s. c #996968",
"d. c #9B7964",
"f. c #896B70",
"g. c #BC796B",
"h. c #A3796C",
"j. c #AD635C",
"k. c #B7896A",
"l. c #B18A71",
"z. c #B9937A",
"x. c #A68776",
"c. c #CB9A7A",
"v. c #C99675",
"b. c #CB9176",
"n. c #DAA27D",
"m. c #002E81",
"M. c #013282",
"N. c #0B3A89",
"B. c #133A82",
"V. c #0C3E91",
"C. c #1E4587",
"Z. c #005581",
"A. c #194A98",
"S. c #284785",
"D. c #344D80",
"F. c #3A5386",
"G. c #224E99",
"H. c #23519D",
"J. c #2F528F",
"K. c #1E52A5",
"L. c #2254A4",
"P. c #2559AE",
"I. c #2558AA",
"U. c #265CB2",
"Y. c #295DB2",
"T. c #315CA5",
"R. c #3862A9",
"E. c #3762AA",
"W. c #3F6BB4",
"Q. c #515A80",
"!. c #425688",
"~. c #417185",
"^. c #4A6D90",
"/. c #716C81",
"(. c #737782",
"). c #4D6EA5",
"_. c #4F70A7",
"`. c #4C75BA",
"'. c #5478B2",
"]. c #8A7982",
"[. c #838383",
"{. c #888988",
"}. c #9B8281",
"|. c #9D9D9D",
" X c gray58",
".X c #968A96",
"XX c #A68984",
"oX c #B99483",
"OX c #B18E83",
"+X c #A8A8A8",
"@X c #BABBBB",
"#X c #B5B4B4",
"$X c #BAACA2",
"%X c #B3A093",
"&X c #CA9E81",
"*X c #C89E89",
"=X c #C19887",
"-X c #CEA186",
";X c #D4A486",
":X c #DCA683",
">X c #D5A788",
",X c #DCAA8A",
"<X c #E5AB85",
"1X c #E9AD84",
"2X c #E4AE8A",
"3X c #E6B08E",
"4X c #ECB189",
"5X c #E3AF90",
"6X c #E6B493",
"7X c #E8B694",
"8X c #ECB997",
"9X c #F0B287",
"0X c #DECBBE",
"qX c gray77",
"wX c #CCCCCC",
"eX c #C8C7C7",
"rX c #CAD4D8",
"tX c #D2D2D2",
"yX c #D5DADC",
"uX c #FBE7DA",
"iX c #E9E9E9",
"pX c #FDFDFD",
"aX c #F4F4F4",
"sX c #EFF2F3",
/* pixels */
"                                                                                    X . X . X . X X .                                                           ",
"                                                                                    . . . . . . . . .                                                           ",
"                                                                                  2 < < 3 3 3 3 3 a a                                                           ",
"                                                                              X . 3 M ^ +.#.#.+.8.a.p.2 . X                                                     ",
"                                                                              O . 3 ..M +.#.+.+.7.s.p.3 X o                                                     ",
"                                                                              X . r M M ^ ^ ^ ^ X.6.6.^ N j . .                                                 ",
"                                                                              X . 3 ^ ^ ^ m M M X.#.6.6.6.k . .                                                 ",
"                                                                              . . = 6 a r a r 7 j X.O.+.6.k . .                                                 ",
"                                                                    o . . . . . . . . . . . . . > m M +.6.k . .                                                 ",
"                                                                    , > = > @ > = @ > @ > > = @ 3 x b N ^ s . .                                                 ",
"                                                            . . . X o.9.r.r.r.9.r.r.9.r.9.r.r.i.o.o X X X X . .                                                 ",
"                                                          O . . . . o.a.a.a.a.a.a.a.a.a.a.a.a.a.@.. . . . . . .                                                 ",
"                                                  o o X X d n n b b 7.q.9.9.q.9.9.9.9.9.9.9.i.a.r.............V > X                                             ",
"                                                  . . . . x 8.8.8.8.8.8.8.8.8.8.8.8.8.8.8.8.i.a.a.a.a.a.a.a.a.r.= .                                             ",
"                                                2 < < < < n 8.7.8.8.8.8.7.8.8.8.8.8.7.8.8.7.q.p.i.i.p.a.a.a.a.r.d 3 p                                           ",
"                                            . . a 7.7.6.7.7.8.8.8.8.8.8.8.8.7.8.8.8.8.8.8.8.8.8.8.8.8.p.p.a.a.p.s.s.j . X                                       ",
"                                            . . a 8.8.8.8.8.8.8.8.8.8.8.8.8.8.7.7.8.7.8.8.8.8.7.8.8.8.i.p.a.a.a.a.a.x . o                                       ",
"                                            . . a 8.8.8.8.8.8.8.8.7.8.8.8.7.8.8.8.8.8.8.7.8.8.8.7.8.7.9.q.8.8.q.p.a.9.*...o O                                   ",
"                                            . . a 8.8.8.8.8.8.8.8.8.8.8.8.8.8.8.8.7.8.7.8.8.8.8.8.8.8.8.8.8.8.8.p.a.a.a.*.X .                                   ",
"                                            a a n 8.8.8.8.8.8.6.n b +.8.8.7.7.8.8.8.8.8.7.8.8.8.8.7.8.8.8.8.8.8.q.i.p.a.*.X .                                   ",
"                                        . X M 8.8.8.8.8.8.8.8.^ X . n 8.8.7.8.8.8.7.8.8.8.8.8.8.8.7.8.8.7.8.8.8.8.8.q.a.*.X .                                   ",
"                                        . . N 8.8.8.8.8.8.6.#.M + o M 8.8.8.8.7.8.8.8.8.8.8.8.8.8.8.8.7.8.8.8.8.8.8.q.p.*.X .                                   ",
"                                        . X M 8.8.8.8.8.8.k o < b b #.8.8.7.7.8.8.8.7.8.8.8.8.8.8.8.8.8.8.8.8.8.8.8.8.9.X.X .                                   ",
"                                        . . X.8.8.8.8.8.8.s . + m ^ #.8.8.8.8.8.8.8.8.8.8.8.8.8.7.8.7.8.8.8.8.8.8.8.8.8.X.. .                                   ",
"                                    . < x x $.8.8.8.8.@.@.r . X 2 3 ^ o.o.^ o.O.@.@.8.8.8.8.8.8.8.8.8.8.8.8.8.8.8.8.8.8.6.b k 3 .                               ",
"                                  X . < 7.8.8.8.8.8.7.X.^ 3 . . . . d ^ ^ ^ ^ ^ m O.8.8.8.8.8.8.8.8.8.8.8.8.8.8.8.8.8.8.8.8.8.3 . X                             ",
"                                  . . < 7.8.8.8.7.@.#.b x p 8 9 8 8 d x x x v k x M 7.@.7.#.7.@.6.#.*.8.8.8.8.8.8.8.8.9.8.8.7.3 . X                             ",
"                                  X . < 7.8.8.8.@.^ m + . P L.L.L.L.e . . X . . . a ^ ^ ..M C ^ ^ ^ ^ 6.8.8.8.8.8.8.8.8.8.8.7.4 . X                             ",
"                                  X . < 6.8.7.8.@.^ b o . T P.P.P.I.A . . O . . . a m M m m m M ~ M M #.8.8.8.8.8.8.8.8.8.8.7.4 . X                             ",
"                                  . . < 7.8.O.o.x > , ` D.C.N.A.P.I.W G Y Q ) D.D.I > > > < > > < > > < 3 j X.o.6.8.8.8.8.8.7.4 . X                             ",
"                                  . . < 7.7.X.m d . % ).`.H.E N.I.P.V.m.V.U.Y.`.`.! . . . . . . . . . . . 3 ^ ^ 7.8.8.8.8.8.7.4 . X                             ",
"                                  X . > $.#.X.^ d . O J.T.!.Q.!.A.A.F.Q.F.A.K.E.W.S.e e 9 9 9 9 q c c q 9 q d j @.@.#.#.6.8.7.3 . X                             ",
"                                  . . @ m ^ ^ ..d . $ Y m.(.1XoXN.M.}.<X}.M.M.L.P.P.P.K.M.M.m.m.!.<X:X` m.Z . X b ^ ^ m ..8.7.4 . X                             ",
"                                  X . > m m m n d O ; Q B.2.n.x.Q R x.4X}.B.B.K.I.I.I.K.B.Q W R ` c.b.!.Q G $ o x m m m ..7.7.3 . X                             ",
"                                  O . @ m m 4 o y A.J.XX=X@.6 > % * d.8X,XoXOXS.M.N.M.S.XXoX~ $ & 4 3 d.=X1.R G - + s ^ ^ 7.7.4 . X                             ",
"                                  X . @ m m @ . A P.R.-X9XC . . . . h.8X6X1X:XS.E m.m.) ;X4XV . . . O k.9X].M.R $ . a M ^ 7.8.3 . X                             ",
"                                  . . > m m @ . A P.T.=.C g 0 y 3.(.-.&.y.2X2X].(././.1.&.&.h 0 t 3.3.&.&. .E R $ . a m ^ o.@.< . X                             ",
"                                  X . > m m @ . A P.G.* . 0 / ] sXpX| . c 6X6X<Xn.<X1Xv.+ . u K >.pXaXg . w M.R $ . a ^ ^ m m > . X                             ",
"                                  . . @ m m @ . A U.H.p 4 y F ' rXyX[ . c 6X6X2X<X<X<Xv.d 6 y K ] rXrXh . 9 M.R $ . a ^ m ^ M > . X                             ",
"                                  X . > M m @ . A P.R.oXc.<.F K / / ; . c 5X6X6X6X6X6X3X;X-X;.F ( / / % . w M.R $ . r ^ M M M > . o                             ",
"                                  O . # m m @ . A P.R.*X1X,.K K F F ; . c 6X6X6X6X6X6X7X7X7X<.K J J F % . 0 E R $ . a M M M m > . X                             ",
"                                        4 < X . A P.R.*X1X5.( ( K K <.y.l.6X6X3X2X3X7X6X7X6X>._ ( F K -.y.:.E R $ . a ..b 3 2 >                                 ",
"                                        . . . . A P.E.*X1X5.Z._ K K x.8X7X6X7X,Xn.3X6X6X6X7X^.Z.( K L z.9Xf.m.R $ . a M x X .                                   ",
"                                        . . . . A U.E.*X<X{.~.~.;.;.oX7X6X6X7X,X2X3X7X6X6X7X{.~.>.;.;.c.4X].M.R $ . a M x . .                                   ",
"                                            . . A P.E.*X<X2X6X6X5X5X6X6X6X6X6X6X7X6X6X6X6X6X6X6X5X5X5X,X<X].E R $ . a M x . .                                   ",
"                                            . . A P.E.oX:X,X6X3X6X6X7X6X6X6X6X5X3X3X6X6X6X6X7X7X6X6X6X>Xn.].M.R $ . a M x X .                                   ",
"                                            . . A P.P.).). X1X2X6X6X7X7X6X7X5Xg.j.b.2X6X6X7X7X6X3X2X:XV 7 I K.A.% . o @ >                                       ",
"                                            . . A U.U.U.K..X1X2X6X6X6X7X6X7X5Xe.w.b.5X6X6X6X6X7X3X4X:X7 . A U.H.% . . . .                                       ",
"                                              o y T T L.P.:.u.y.,X3X6X6X6X7X,Xb.g.c.7X7X6X7X3X3Xc.u.&.U H H T P 8 O o o                                         ",
"                                                  . % G.P.H . 7 n.<X6X6X7X7X7X7X8X7X7X8X7X7X3X1Xk.. . C.U.T . .                                                 ",
"                                                  . & C.G.P , d k.v.c.-X&X&X-Xc.&X&Xc.c.&X&Xc.v.y.6 p ) G.T . X                                                 ",
"                                                      * % 4.iX#X6 > > > > > > > > > , > > > # # } tXtXU % -                                                     ",
"                                                      X . {.pXwX: . . . . . . . . . . . . . . . B aXaXg . X                                                     ",
"                                                          { <.,.2.2.2.2.2.3.,., . g 2.2.2.2.2.2.5.,.,.f                                                         ",
"                                                          X . i qXtXtXtXtXtXqXi . <.tXtXwXtXtXtX X. .                                                           ",
"                                                          f g {  X|.@XwX@X|. X{ f ,.|.+XqXwX#X|.[.g g                                                           ",
"                                                      X . {.aXqX, o  XtX{.o , qXpX].. i @XwX| . [ iXiXg . X                                                     ",
"                                                      X . {.pXqX: . {.wX].. : eXpX[.. p #XeX{ . [ aXiXg . :                                                     ",
"                                                  . , +X@X2.[ f . . i g v n n s.h.9.n N g f , . : [ { |.@X3.. X                                                 ",
"                                                  . , yXpX2.. . . . . . 4 6.#.#.N 6.w.N X . . . . . o qXpX X. .                                                 ",
"                                                d V %.wXuX-.. . . . @ 3 k +.6.6.6.6.6.N 5 3 + . . . X $XuX%XB B                                                 ",
"                                            . . V 8X4X8X8X%.. . . . n 6.#.6.+.6.6.6.6.N 6.6.3 . . . X l.8X6X7X-X1 .                                             ",
"                                            . . B -X>X;X>X%.. . . . n 6.6.6.6.C ^ 6.+.6.6.6.5 . . . X x.:X;X;Xz.> .                                             ",
"                                            . . o 6 4 6 4 4     . . n 6.6.6.+.3 + l 6.6.6.6.3 . X     1 1 6 4 , X .                                             ",
"                                            . . . . . . .       . . n 6.6.6.+.@ . s 6.6.6.6.5 . X     . . . . . . .                                             ",
"                                                                . . 3 s s l a X . > s l l s @ . X                                                               ",
"                                                                . . . . . . . . . . . . . . . . .                                                               ",
"                                                                . . & 8 - 8 - X . & 8 - 8 8 o . O                                                               ",
"                                                                . . ` '._._.^.- . I ).)._.).t . X                                                               ",
"                                                                . . ` '.'.'._.8 . I '.'.'.'.D . X                                                               ",
"                                                                . . q t D t t O . - t t t t & . .                                                               ",
"                                                                . . . . . . . . . . . . . . . . O                                                               ",
"                                                                . . a c 7 . . g { i . X z z > . X                                                               ",
"                                                                . . d.8Xd.. : wXpX[.. 1 -X6XB . X                                                               ",
"                                                                . . d.7Xy.. : wXpX[.. 1 c.5XV . X                                                               ",
"                                                                . . N t.C . o wXpX[.. : 7.t.a . X                                                               ",
"                                                                . . b 6.b . : wXpX{.. + O.6.5 . .                                                               ",
"                                                                X . 5 k 3 . & @XiX2.. X s j @ . o                                                               ",
"                                                                o . . . . . o |.eX<.. . . . . . .                                                               ",
"                                                                > . . . . . : |.eX<.. . X . . . :                                                               "
};
