/* XPM */
static char *result[] = {
/* columns rows colors chars-per-pixel */
"80 80 89 1 ",
"  c #121F2C",
". c #13232D",
"X c #15282F",
"o c #162C31",
"O c #182F32",
"+ c #173031",
"@ c #193433",
"# c #1C3A34",
"$ c #203E31",
"% c #1F4033",
"& c #224432",
"* c #244B33",
"= c #284D32",
"- c #265235",
"; c #2A5433",
": c #2C5B35",
"> c #315D33",
", c #2F6135",
"< c #326535",
"1 c #356B35",
"2 c #396E35",
"3 c #366338",
"4 c #386338",
"5 c #3D6E38",
"6 c #377035",
"7 c #3B7335",
"8 c #3E7A35",
"9 c #3F7138",
"0 c #406F39",
"q c #417637",
"w c #427C36",
"e c #487E37",
"r c #427339",
"t c #4A773B",
"y c #457A38",
"u c #4A7C39",
"i c #507C3C",
"p c #468136",
"a c #4A8437",
"s c #4D8B36",
"d c #4D8239",
"f c #4F8838",
"g c #518D37",
"h c #53843B",
"j c #58863D",
"k c #558B39",
"l c #5B8C3C",
"z c #549237",
"x c #569138",
"c c #5C943A",
"v c #5E9939",
"b c #638F3F",
"n c #62943D",
"m c #69973F",
"M c #649C3B",
"N c #6A9C3E",
"B c #709F3F",
"V c #67A03B",
"C c #6CA33D",
"Z c #71A63E",
"A c #75A93F",
"S c #79AC3F",
"D c #679443",
"F c #6A9740",
"G c #619842",
"H c #6D9B40",
"J c #739F41",
"K c #629055",
"L c #6B9853",
"P c #719F54",
"I c #75A440",
"U c #79A742",
"Y c #77A940",
"T c #7BAD40",
"R c #7EB041",
"E c #7EA564",
"W c #7AA26C",
"Q c #82AE43",
"! c #83AC4D",
"~ c #84B342",
"^ c #89B743",
"/ c #8CBA44",
"( c #91BD45",
") c #93B85A",
"_ c #8AB067",
"` c #96BB62",
"' c #90B66A",
"] c #A8C679",
"[ c #96B482",
/* pixels */
"RTT///RR^/RR~/(/~RR^/~///RRR~//((~RR^^~/(/SS~~//(/^SR//^///RS~^^((/S~~^~S~///TR~",
"^^^///~R//^~^/(/~R^//~^//^~^~//(/^R^/^^^//^^~^////~~^(^~///^^^^^(((^S^/^S^((/^~/",
"(/(//^~R^//^^/(/R~///R~//(///^//~~~//~R~//(//////^S///^~^//((/^////^^^^/~^/((((/",
"(//RT~TTSRRR~//~TTRRRTR~/(/RR^//~TTRRTTR/((^SS^//~SSS~TAS/((/SS~/~AAS~SSSS^((((/",
"//^ZCZTAHMCTRRIIYIVVCITT~~~YIRRYIIIHCIITS~^~TSTQZZTCNCZASTR^~ZS~AACSSSCVAZIQ/(/^",
"~^/YVVZYcfzITMkjIHkfvTCMvIYFVRnlcCGffMYAMMZZZAZMhbInkfMACMvAAMZAMvCSQncnImjJ~/~R",
"^^~RCclj82qcnd75jd57aMcaaflhdldquhd57kvxaakkjjga7yju27kMxaaklujkdkNAMurthjjI~~^^",
"/^T~Zfw2131pa71192317aw667r99961725,18aw11qr5r7612r1<<9a9719q2596ukld3<22tlI~T~/",
"(^QAbq1676<661686627761<,166661677677661<<116811876667761,1<1871,12q71686rtcAR/(",
"^^~Sl08876,,<6881178711663,689667717w61166<,686677167871166,,6881111178887qnS^/^",
"~^/Qmuww763,18w8<,18717886,36w9313,68616w71:<88661,,6881888<,178668668878qiZ^/~S",
"^/(^SNa81161681,:-:<<178,,-:,63::-::><1781:-;<<<::;:>>><881:-:<116866w1<3qkA~(^^",
"/^^SAZl81<1<,1;&**&&*-,1--*%----%-**&*;<,;&***-;****&&*;<,;%%*-;:>6>>61<<5dnA~^^",
"^QAbkNcp6>;=-&$#&&#O+#*%%#%######%%#OO$&*%@$%@$&@@%%$OO$-*%%%#%%&**==-<7611wM~~R",
"/~AbkMzp8>&###++#++OO+##@@##@#@O+@#@OO+##@@##@@@+@@$@+XO$@@@#@@@@@@$$&>88wwkMS~^",
"~SZNMMgw8;$+O+++@@##@++++@@#@@@O++@@@+++++@###@++@@@@@@+++@@@@@@++@++%<8pknMCAS~",
"ZMMCAAnq>=$OO@@O####@##@@@####@@@#######@@@###@@+@###@@@##@####@@+@O+$;2unSAVMVC",
"CCCCCMxy>$+O@OO@########@@####@#@#########@####@@@@###@@########+@@OO#&>ecCNCCVV",
"SSSMxzsq;$OO$@O@########@@#@#@###########@@###@###@##@@@########@+++oO&>wszvCRSA",
"///SNgw1;$O##@@@@##OO###@@@@@###@@#@@@@@@#@#@@###@@@###@##@@@#@@@@++O+&>6azCR^^^",
"/^~~Zxq1>=$##@@@@@@@@@@@@@#@@@#@@@@@@o@@@@#@@@@##+@####@@@@@@@@@+@@@O$=>1ecAR~^(",
"~SCZCle77;$OOO@@@@@###@O@@#@@@@@@@o@oooo@@#@@O@@+@##%#@@@@###@@@@##@@&>8qanNZCSR",
"SSACcwqq3=#@@@@@###@@OooX@@@oOooooooXoXXoo@@OOoo+++@#@OX+@#@####@#$@@$;<8qenZAAZ",
"ZASBxq76-#@@#@@####@Ooo.XXXXoXXXooooXX..XooooOooOoOOOOXX++@@####@@@@oo$>67qnZSZV",
"NCSRBu2>*@O@###@##@@OOoXXoXX.XXX....ooo.....XXXXX....X..oo+++@##@@++++$-:5hASAZZ",
"AAASBkq>*$O@###@##@@OoXXooX........ooo.. ... XXX.. .XX...o+++@@#@+@@++&*<yxASASS",
"~RSCMcp1=$@O+#####@@OoXXXoXX  ......oo...XX.XXXXX.  .oX..oo+@@######@@&>7svVAS~^",
"/^RRZvfw1=$+++####@@OOXXX.X.X...oo...o...X+oXXX...X.....ooo+@#####@@##:6wsVSSS^/",
"^RSRSMf71;OOOO@####@OOoX...XXXXXooo..o. ..XXXX. ..XX....ooOO@#####@@O$>78kZTSA~/",
"SCMCSZd>;=$$+$@@##@@OOoX...XooX.ooo..oo....... ..XooX ..o+O+@#@#@##@O$=>1kUACvZS",
"SSVMMMf2;&OO@$@@###@@ooX. .XoX.. .o  o.   .  .. ..XXX ..Xo+@###@@@@$@+&>8lNMVZAS",
"RSAMcvzw>=OO@$@@####@ooX....X...     .   ...... ..XX....Xo+@###@@@$+O@=1pxMvVSSS",
"RTVIIFkw33@@@@@@@##@OOooo..oo.      . .   . ... ..oo...ooOO@###@@@@O+&>qwxZZCCAR",
"YVVVCJcy3#@@@@@#@##@OOOoooooo.     .     . ..   .oooo..oOOO@@@###@@OO$;2enACVVCZ",
"VvVVVCG7-#@O@@####@@OOoo..o.....      .   .      ooo...oooOO@@@###+OOO$>eMCNMMMv",
"TRRCvzf8-#@@@@####@@@Ooo. . .o.. . ... ... .   . .o ....ooO@@#####+OOO&>wszMA~SA",
"///TGsp63####@###@##@@Oo.....o..   . .....      .o......oO@##@####OOo$=>7pzVS///",
"/^RRYx813-##@@@@@@@@@OOo..oo....   .. ..  ... ...oo.oo.ooO@@#@@@O##OO$=>1wnS^R//",
"RTACGar03-@@@@@@@##@OOoo........ . .  . . ..   ..o.oooo.ooO@@#@@@##@+$>18wkNZZAS",
"TAVVKyyt3*@@@@@@##@@ooo..........    . . .  .  .. ..o....oO@@####@#OO$;2wwulVCCA",
"CTTAv771-#@###@###@@@oooo....oo.. .. .... .       ...o...ooO@@##@@@@OO&:21qnSSZC",
"VCATVu2:-#@###@###@@@Oooo.....o.. ... .. ..... .  ...oo..ooo@@##@@@OOO#=<rdBRSZZ",
"AAATIl9:##@####@##@@ooo.ooo.....  .  . .. ..     ...oooooooO@@##O@@O@+&->yMASZAS",
"RRTTCxp7-#@@@@####@@ooo..oo.....    . .. . .. .  . ..oo...oO@@######@@&<7avZSS~/",
"/^~SCcs7####@@####@@OOooo........        ..  . . .....o oOOO@#######O$=1wsMZSR//",
"~SZR~Hd6K3##@@####@@OOoo...oo...  .    .    .   ..o....oo@OO@@###@@+$&>17kASSZS/",
"ACMZABf<-#@@@@@@##@@Oooo...ooo...  .    .. . . ...o..o.oooOO@######@O$=>5kAACVZS",
"AZMMMNf1##@@@##@@#@Oooo....ooo..  .. ...         ..oooo.ooO@@@#@+##OOo&:2kZMMVZA",
"^~ZVvcsw1=OO@$@@@#@@@@oooooo.......................ooo...oOO@@@@@@#@O#;7wgMvVSR^",
"SSCCNNxw7;$++@@O###@OOooooooo....o....oo.....o.. .o..oo.ooOO@@#@O@@OO$>qacCNCCSS",
"CVMZSAnq<=$@++@@##@@@OOooooooo..oo.....o....ooo...oo.oo.oooO###@@O@+@$;2eMSACMVZ",
"ZCCVMMkw>$oO#++$##@@OOOooooo....ooo........o.oo..oo.o..ooooO@#####@OO@&>ecMMVZCM",
"SSSCvzs7=#O@#@#####@oooooo..........o....oo..o.. oo..oo.ooOO@####@OOoo$>qszMCRSS",
"(//RVsw1;$@##@@##@@@Oooooooo.......ooo....o.oo..  ...ooo.oOO@@###@@O+O&>6wxC~///",
"/^SRZxy1<;$@@@@##@@OOooooooo........oo......ooooo.. .o...oOO@@###@$+@$;67eMASS^/",
"^SZACly71>$@@O@@#@@OOooooooo.ooo.....oo.....oooOoo.oo. ..oO@@###@#$@+&>77ebBAZSR",
"AAANkww8>&O@@++####@@@OOooO@oOO@ooooooo.OOOOOO@OOOOOOooooo@@#####@#@O@=48wqcCAAZ",
"CASZnq1<=$@@#$@@####@@@@o@@@OO@@ooOOoooo@@OOOO@@@OO@O@O@oo@@@###@@O@OO&:17qnASCV",
"CAS~Bu2:*@O$###+@@@@#@@@O@@@@@@@O@@@OOoo@@@#@O@@@@@@@@#@O@@@@@@@@O++O@$*,5hIRSAZ",
"AAAANkw>=$O@##@+@#@@@@@#@@@@@@##@@@@@OOO@@##@@@@#@@@@@#@@@@@@@#@@@@++@$=1ycCAASS",
"~SSANca7;&@O@@@@###@@@##@@@@@#######@@@##@@##@#####@@@#@##@@@###@#@#@@&>7fvCAS~^",
"/^~RZMaw2=#OO@@@########@@@##@######@@###@@#######@###@#########@@#@@$>7wsMY~S/(",
"~AZSTNd2<=$@@@@@########@@###@@@@########@@###@@@@@###@@#######@@@$@@$;29kITAZS/",
"SCVZABd<>=#@@@######@@@#@###@@@@@@###@##@@@###@@@@###@@@##@####@@#@@O$*<2kYICVZS",
"SAZMxMf2;$+O@###@@@@@O@@@@@@@#@OX@@@@@++@@@@@@@+++@@#@OO+@@+@@@@####@@%:8kVcMZSA",
"RSCxgkaw>&+@@##@+@@@@+O@##@@@@@@@@@@@@++@##@@@###+@@O@@@+@##@@@@#%#@O@*3wflgxASS",
"^AVxkaaw<=@@@#@@@@@##++###@O@@##@@@@@@@@###@X@##@#++@@@@@#%@@+@#%##@+#-6wadkcVS~",
"ZVvVNmd1,*$@@#@+++@@#++###OO@@@@@@X@@#@+###+@X@@++@O@##O@##@+++@@#@@@%-<9hNNMvCZ",
"ZVvVASnr>*#@@@@@OO+##O@+@@++OOOO+++$#@@+@@@OOO+@O@++@#@O@@@@+O+@OOOO@#-<rmQBvvVA",
"^AMvNSJb3&###@@#O+@@++@O@@@+@@@@++++@@@@++#+@@@+#+++@O+@@@@@@@@@OOO##$&0DUSMvVS^",
"AVvxvnlt:*%%%#%%&&&#$&&#$$%%%##&%*%%&$%%####$%$#&&&&$#&&##########$&&&=4uGvvvvAS",
"VMvMni0>::,;*-,<:-*&=>:*-%&*&&*:,,--**::***&&*&-><:-**->;;&****%=;;---->3qsvMvVC",
"ZZZSTj5;:<6,-<781,--,771:-----,781:-:,681:----:<871:--<861-----:<781,,:;:rGUSCCA",
"SZCSTNu<:17,,6881,1,<888,;:--:6881,,,1886,-:-::1w81<<<16w8,:-:-:687116<:1hITAVAS",
"SCzVCZk2,,3:,161,686<<67,:,,,,6711686,<661:,<:,176<781<,66,:,<::661,187<qcICvzZ~",
"Vzszxcf7<,:-:<<,6881,:,3:,186,,,,1881:,,,,:681<,,,188<,:<,,,676,11117775ulcxssvV",
"vvzzszkh813<,<3168761,:::,688,<<318761,:,,,6881<112982<,,-:<68713quy715ulcfasvvM",
"SSAzzMIZjddy99tp669ud71,,31776rpq719td73,,,17899uy519du9<,,<6872tnIlq15jIHhdzZAZ",
"^SAzzARIGHUPLDFl9rjDFadu78tdt1jGh90lFGhyay9udqqiNk2rjJcddt89rd70b!`EKdhlIUFkxIR^",
"(SVzvSTNHT)'_!TH5rD~Yjbcdphju1DUjrtHTNcjGf9ljruDTb1iF^JjGxadhlrrm)][WGcDJUTvzC~("
};
